<?xml version="1.0" standalone="no"?>
<!DOCTYPE svg PUBLIC "-//W3C//DTD SVG 1.1//EN" "http://www.w3.org/Graphics/SVG/1.1/DTD/svg11.dtd">
<svg xmlns="http://www.w3.org/2000/svg">
<metadata>Generated by Fontastic.me</metadata>
<defs>
<font id="devpars-icons" horiz-adv-x="512">
<font-face font-family="devpars-icons" units-per-em="512" ascent="480" descent="-32"/>
<missing-glyph horiz-adv-x="512" />

<glyph glyph-name="share" unicode="&#57344;" d="M405 168c-27 0-51-13-66-32l-154 89c4 9 6 20 6 31 0 11-2 22-6 31l154 89c15-19 39-32 66-32 46 0 84 38 84 84 0 46-38 84-84 84-46 0-84-38-84-84 0-11 2-22 6-31l-154-89c-15 19-39 32-66 32-46 0-84-38-84-84 0-46 38-84 84-84 27 0 51 13 66 32l154-89c-4-9-6-20-6-31 0-46 38-84 84-84 46 0 84 38 84 84 0 46-38 84-84 84z m0 320c33 0 60-27 60-60 0-33-27-60-60-60-33 0-60 27-60 60 0 33 27 60 60 60z m-298-292c-33 0-60 27-60 60 0 33 27 60 60 60 33 0 60-27 60-60 0-33-27-60-60-60z m298-172c-33 0-60 27-60 60 0 33 27 60 60 60 33 0 60-27 60-60 0-33-27-60-60-60z m-298 267c-20 0-35-15-35-35 0-7 5-12 12-12 6 0 11 5 11 12 0 6 6 12 12 12 7 0 12 5 12 11 0 7-5 12-12 12z"/>
<glyph glyph-name="heart-o" unicode="&#57345;" d="M368 500c-44 0-85-19-112-52-27 33-68 52-112 52-79 0-144-64-144-144 0-62 37-135 111-215 56-61 117-109 135-122l10-7 10 7c18 13 79 61 135 122 74 80 111 153 111 215 0 80-65 144-144 144z m9-336c-47-50-97-91-121-110-24 19-74 60-121 110-66 73-101 139-101 192 0 61 49 111 110 111 41 0 78-22 97-58l15-26 15 26c19 36 56 58 97 58 61 0 110-50 110-111 0-53-35-119-101-192z"/>
<glyph glyph-name="divide" unicode="&#57346;" d="M0 268l512 0 0-24-512 0z m256 86c34 0 61 27 61 60 0 34-27 61-61 61-34 0-61-27-61-61 0-33 27-60 61-60z m0 97c20 0 37-16 37-37 0-20-17-36-37-36-20 0-37 16-37 36 0 21 17 37 37 37z m0-293c-34 0-61-27-61-60 0-34 27-61 61-61 34 0 61 27 61 61 0 33-27 60-61 60z m0-97c-20 0-37 16-37 37 0 20 17 36 37 36 20 0 37-16 37-36 0-21-17-37-37-37z"/>
<glyph glyph-name="question" unicode="&#57347;" d="M257 83c-23 0-42-19-42-41 0-23 19-42 42-42 22 0 41 19 41 42 0 22-19 41-41 41z m0-63c-12 0-22 10-22 22 0 11 10 21 22 21 11 0 21-10 21-21 0-12-10-22-21-22z m-1 492c-87 0-157-71-157-157 0-23 18-42 41-42 23 0 42 19 42 42 0 40 33 74 74 74 41 0 74-34 74-74 0-41-33-75-74-75-23 0-42-18-42-41l0-97c0-23 19-42 42-42 23 0 42 19 42 42l0 61c31 8 59 27 80 52 23 28 35 63 35 100 0 86-70 157-157 157z m29-291c-4-1-8-6-8-10l0-69c0-12-9-22-21-22-12 0-21 10-21 22l0 97c0 11 9 21 21 21 52 0 95 42 95 95 0 52-43 94-95 94-52 0-95-42-95-94 0-12-9-22-21-22-12 0-21 10-21 22 0 75 61 137 137 137 76 0 137-62 137-137 0-64-45-121-108-134z m-29-9c-6 0-10-4-10-10l0-59c0-6 4-10 10-10 6 0 10 4 10 10l0 59c0 6-4 10-10 10z m0 37c-6 0-10-5-10-10l0-10c0-5 4-10 10-10 6 0 10 5 10 10l0 10c0 5-4 10-10 10z"/>
<glyph glyph-name="exclamation" unicode="&#57348;" d="M256 130c-36 0-65-29-65-65 0-36 29-65 65-65 36 0 65 29 65 65 0 36-29 65-65 65z m0-110c-24 0-44 20-44 45 0 24 20 44 44 44 24 0 44-20 44-44 0-25-20-45-44-45z m31 492l-62 0c-19 0-34-15-34-34l0-274c0-19 15-34 34-34l62 0c19 0 34 15 34 34l0 274c0 19-15 34-34 34z m13-308c0-7-6-13-13-13l-62 0c-7 0-13 6-13 13l0 274c0 8 6 14 13 14l62 0c7 0 13-6 13-14z m-66 148c-6 0-11-5-11-10l0-129c0-5 5-10 11-10 5 0 10 5 10 10l0 129c0 5-5 10-10 10z m0 39c-6 0-11-5-11-11l0-8c0-5 5-10 11-10 5 0 10 5 10 10l0 8c0 6-5 11-10 11z"/>
<glyph glyph-name="like" unicode="&#57349;" d="M477 226c10 15 15 32 15 50 0 21-7 39-23 55-16 16-34 23-55 23l-55 0c10 21 15 40 15 60 0 24-3 43-11 57-7 14-17 24-31 31-14 7-29 10-46 10-11 0-20-4-28-11-9-9-15-20-19-34-4-13-7-26-10-39-2-12-6-21-11-26-10-11-21-24-32-39-21-27-35-43-43-48l-84 0c-11 0-20-4-28-11-7-8-11-17-11-28l0-197c0-11 4-20 11-28 8-8 17-12 28-12l89 0c4 0 18-4 42-12 25-9 48-15 67-20 19-5 38-7 58-7l40 0c29 0 52 8 70 25 17 16 26 39 26 67 12 16 18 34 18 55 0 5 0 9-1 13 8 14 12 29 12 45 0 7-1 14-3 21z m-384-141c-4-4-9-6-14-6-6 0-10 2-14 6-4 4-6 8-6 13 0 6 2 10 6 14 4 4 8 6 14 6 5 0 10-2 14-6 4-4 5-8 5-14 0-5-1-9-5-13z m353 166c-4-10-10-15-16-15 3-3 5-8 8-14 2-7 3-12 3-17 0-15-6-27-17-37 4-7 6-14 6-21 0-8-2-15-6-23-3-7-8-13-14-16 1-6 1-12 1-17 0-34-19-52-59-52l-37 0c-27 0-62 8-105 23-1 0-4 1-9 3-5 2-9 3-11 4-2 1-6 2-11 3-5 2-8 3-11 4-3 1-7 1-11 2-3 0-7 1-9 1l-10 0 0 197 10 0c3 0 7 1 11 2 4 2 8 5 12 9 4 3 8 7 12 11 3 3 8 8 12 13 5 6 8 10 11 13 2 4 5 8 9 13 4 5 7 8 7 9 12 14 20 23 24 28 9 9 15 20 18 34 4 13 7 26 10 38 2 13 6 21 12 27 19 0 32-5 39-15 6-9 10-24 10-44 0-13-5-29-15-50-10-21-15-37-15-49l109 0c10 0 19-4 27-12 8-8 12-17 12-27 0-7-2-16-7-25z"/>
<glyph glyph-name="envelope" unicode="&#57350;" d="M502 424l-492 0c-5 0-10-4-10-10l0-316c0-6 5-10 10-10l492 0c5 0 10 4 10 10l0 316c0 6-5 10-10 10z m-26-20l-220-201-220 201z m-456-13l166-152-166-119z m472-271l-101 72c-5 3-11 2-14-2-3-5-2-11 2-15l94-67-434 0 163 116 47-43c2-2 5-3 7-3 2 0 5 1 7 3l229 210z m-137 98l-7 5c-5 3-11 2-15-3-3-4-2-11 3-14l7-5c2-1 4-2 6-2 3 0 6 2 8 5 3 4 2 10-2 14z"/>
<glyph glyph-name="settings" unicode="&#57351;" d="M481 316l-36 0c-5 0-8 2-10 6-2 5-4 9-6 14-1 4 0 8 3 11l26 26c5 6 8 14 8 22 0 8-3 16-8 21l-42 42c-11 11-31 11-43 0l-26-26c-3-3-7-4-11-3-5 2-9 4-14 6-4 2-6 5-6 10l0 36c0 17-14 31-31 31l-58 0c-17 0-31-14-31-31l0-36c0-5-2-8-6-10-5-2-9-4-14-6-4-1-8 0-11 3l-26 26c-12 11-32 11-43 0l-42-42c-5-5-8-13-8-21 0-8 3-16 8-22l26-26c3-3 4-7 3-11-2-5-4-9-6-14-2-4-5-6-10-6l-36 0c-17 0-31-14-31-31l0-58c0-17 14-31 31-31l36 0c5 0 8-2 10-6 2-5 4-9 6-14 1-4 0-8-3-11l-26-26c-5-6-8-14-8-22 0-8 3-16 8-21l42-42c11-11 31-11 43 0l26 26c3 3 7 4 11 3 5-2 9-4 14-6 4-2 6-5 6-10l0-36c0-17 14-31 31-31l58 0c17 0 31 14 31 31l0 36c0 5 2 8 6 10 5 2 9 4 14 6 4 1 8 0 11-3l26-26c12-11 32-11 43 0l42 42c5 5 9 13 9 21 0 8-4 16-9 22l-26 26c-3 3-4 7-3 11 2 5 4 9 6 14 2 4 5 6 10 6l36 0c17 0 31 14 31 31l0 58c0 17-14 31-31 31z m11-89c0-6-5-10-11-10l-36 0c-13 0-25-8-29-20-2-4-3-8-5-12-5-12-3-26 6-35l26-26c2-2 3-4 3-7 0-3-1-5-3-7l-41-41c-4-4-10-4-14 0l-26 26c-9 9-23 11-35 6-4-2-8-3-12-5-12-4-20-16-20-29l0-36c0-6-4-11-10-11l-58 0c-6 0-10 5-10 11l0 36c0 13-8 25-20 29-4 2-8 3-12 5-4 2-9 3-13 3-8 0-16-3-22-9l-26-26c-4-4-10-4-14 0l-41 41c-2 2-3 4-3 7 0 3 1 5 3 7l26 26c9 9 11 23 6 35-2 4-3 8-5 12-4 12-16 20-29 20l-36 0c-6 0-11 4-11 10l0 58c0 6 5 10 11 10l36 0c13 0 25 8 29 20 2 4 3 8 5 12 5 12 3 26-6 35l-26 26c-2 2-3 4-3 7 0 3 1 5 3 7l41 41c4 4 10 4 14 0l26-26c9-9 23-11 35-6 4 2 8 3 12 5 12 4 20 16 20 29l0 36c0 6 4 11 10 11l58 0c6 0 10-5 10-11l0-36c0-13 8-25 20-29 4-2 8-3 12-5 12-5 26-3 35 6l26 26c4 4 10 4 14 0l41-41c2-2 3-4 3-7 0-3-1-5-3-7l-26-26c-9-9-11-23-6-35 2-4 3-8 5-12 4-12 16-20 29-20l36 0c6 0 11-4 11-10z m-236 110c-45 0-81-36-81-81 0-45 36-81 81-81 45 0 81 36 81 81 0 45-36 81-81 81z m0-142c-34 0-61 27-61 61 0 34 27 61 61 61 34 0 61-27 61-61 0-34-27-61-61-61z m102 31c-5 2-11 0-14-5 0-3-1-5-2-7-3-5-1-11 5-13 1-1 2-1 4-1 4 0 7 2 9 6 1 2 2 4 3 7 3 5 0 11-5 13z m-22-39c-4 4-10 4-14 0-18-17-41-26-66-26-6 0-10-5-10-11 0-5 4-10 10-10 30 0 58 12 80 32 4 4 4 11 0 15z"/>
<glyph glyph-name="home" unicode="&#57352;" d="M509 250l-246 246c-4 4-10 4-14 0l-246-246c-3-3-4-8-2-11 1-4 5-7 9-7l41 0 0-208c0-6 4-11 10-11l143 0c6 0 10 5 10 11l0 149 84 0 0-149c0-6 4-11 10-11l144 0c6 0 11 5 11 11l0 208 39 0c4 0 8 3 9 7 2 3 1 8-2 11z m-57 3c-5 0-10-5-10-10l0-209-124 0 0 150c0 5-4 10-10 10l-104 0c-6 0-10-5-10-10l0-150-123 0 0 209c0 5-4 10-10 10l-26 0 221 221 221-221z m-285 98c-4 4-11 4-15 0l-75-75c-4-4-4-10 0-14 2-2 5-3 8-3 2 0 5 1 7 3l75 75c4 4 4 10 0 14z m31 32c-4 4-10 4-14 0l-7-7c-4-4-4-10 0-14 2-2 5-3 8-3 2 0 5 1 7 3l6 7c4 4 4 10 0 14z"/>
<glyph glyph-name="pencil" unicode="&#57353;" d="M503 439l-64 64c-13 12-33 12-45 0l-341-341c-1-1-2-2-2-4l-50-144c-2-4-1-8 2-11 2-2 5-3 7-3 1 0 2 0 4 1l144 50c2 0 3 1 4 2l341 341c12 12 12 32 0 45z m-476-412l12 35 23-23z m57 19l-38 38 19 54 73-73z m72 30l-51 50 125 126c4 4 4 10 0 14-4 4-10 4-14 0l-125-125-15 15 282 282 80-80z m332 332l-35-35-80 80 35 35c5 5 12 5 16 0l64-64c5-4 5-11 0-16z m-219-103c-4 4-11 4-15 0l-14-15c-4-4-4-10 0-14 2-2 5-3 7-3 3 0 5 1 7 3l15 14c4 4 4 11 0 15z"/>
<glyph glyph-name="star-half" unicode="&#57354;" d="M512 313l-170 36-86 150-86-150-170-36 116-128-18-172 158 70 158-70-18 172z m-256-195l0 318 66-115 129-27-88-98 14-132z"/>
<glyph glyph-name="star-filled" unicode="&#57355;" d="M512 313l-170 36-86 150-86-150-170-36 116-128-18-172 158 70 158-70-18 172z"/>
<glyph glyph-name="star-o" unicode="&#57356;" d="M512 313l-170 36-86 150-86-150-170-36 116-128-18-172 158 70 158-70-18 172z m-256-195l-121-54 14 132-88 98 129 27 66 115 66-115 129-27-88-98 14-132z"/>
<glyph glyph-name="heart-half" unicode="&#57357;" d="M368 500c-44 0-85-19-112-52-27 33-68 52-112 52-79 0-144-64-144-144 0-62 37-135 111-215 56-61 117-109 135-122l10-7 10 7c18 13 79 61 135 122 74 80 111 153 111 215 0 80-65 144-144 144z m9-336c-47-50-97-91-121-110l0 329 15 26c19 36 56 58 97 58 61 0 110-50 110-111 0-53-35-119-101-192z"/>
<glyph glyph-name="heart-filled" unicode="&#57358;" d="M368 500c-44 0-85-19-112-52-27 33-68 52-112 52-79 0-144-64-144-144 0-62 37-135 111-215 56-61 117-109 135-122l10-7 10 7c18 13 79 61 135 122 74 80 111 153 111 215 0 80-65 144-144 144z"/>
<glyph glyph-name="briefcase" unicode="&#57359;" d="M281 208l0 12c0 14-11 25-25 25-14 0-25-11-25-25l0-12c0-13 11-25 25-25 14 0 25 12 25 25z m17-13c-5-19-22-32-42-32-20 0-37 13-42 32l-173 0c-11 0-21 2-31 7l0-115c0-23 19-41 41-41l410 0c22 0 41 18 41 41l0 115c-10-5-20-7-31-7z m172 206l-98 0c-6 37-38 65-77 65l-78 0c-39 0-71-28-77-65l-98 0c-23 0-42-19-42-41l0-94c0-23 18-41 41-41l171 0c0 12 5 22 13 30 1 0 1 0 1 1 2 1 4 3 6 4 0 1 1 1 2 1 2 1 3 2 5 3 1 1 3 1 4 1 2 1 3 1 4 2 3 0 6 0 9 0 3 0 6 0 9 0 1-1 2-1 4-2 1 0 3 0 4-1 2-1 3-2 5-3 1 0 2 0 2-1 2-1 4-3 6-4 0-1 0-1 1-1 8-8 13-18 13-30l171 0c23 0 41 18 41 41l0 94c0 22-19 41-42 41z m-290 0c5 15 19 27 37 27l78 0c18 0 32-12 37-27z"/>
<glyph glyph-name="alarm-clock" unicode="&#57360;" d="M353 255l-63 0c-3 13-13 22-25 25l0 90c0 5-4 9-9 9-5 0-9-4-9-9l0-90c-15-3-26-17-26-33 0-20 16-36 35-36 16 0 30 12 34 27l63 0c5 0 9 4 9 9 0 4-4 8-9 8z m-97-26c-10 0-18 8-18 18 0 9 8 17 18 17 10 0 18-8 18-17 0-10-8-18-18-18z m186 197l36-36c2-2 4-3 6-3 2 0 5 1 6 3 28 28 28 73 0 101-27 28-73 28-101 0-1-2-2-4-2-6 0-2 1-5 2-6l40-41-15-14c-42 37-97 60-158 60-61 0-116-23-158-60l-15 14 40 41c1 1 2 4 2 6 0 2-1 4-2 6-28 28-73 28-101 0-28-28-28-73 0-101 1-2 4-3 6-3 2 0 4 1 6 3l36 36 15-15c-41-42-67-101-67-164 0-88 47-164 118-205l-27-27c-4-3-4-9 0-12 2-2 4-3 6-3 2 0 5 1 6 3l31 30c31-15 67-24 104-24 37 0 73 9 104 24l31-30c1-2 4-3 6-3 2 0 4 1 6 3 4 3 4 9 0 12l-27 27c71 41 118 117 118 205 0 63-26 122-67 164z m36 53c19-19 21-49 6-70l-76 75c21 15 51 14 70-5z m-450-70c-15 21-13 51 6 70 19 19 49 20 70 5z m228-383c-121 0-220 99-220 221 0 121 99 220 220 220 121 0 220-99 220-220 0-122-99-221-220-221z m0 398c5 0 9 4 9 8l0 9c0 5-4 9-9 9-5 0-9-4-9-9l0-9c0-4 4-8 9-8z m0-353c-5 0-9-3-9-8l0-9c0-5 4-9 9-9 5 0 9 4 9 9l0 9c0 5-4 8-9 8z m185 168l9 0c5 0 8 4 8 9 0 4-3 8-8 8l-9 0c-5 0-9-4-9-8 0-5 4-9 9-9z m-370 17l-9 0c-5 0-9-4-9-8 0-5 4-9 9-9l9 0c5 0 9 4 9 9 0 4-4 8-9 8z m316 135l-6-6c-4-4-4-9 0-13 1-2 3-2 6-2 2 0 4 0 6 2l6 6c4 4 4 9 0 13-3 3-9 3-12 0z m-268-268l-6-6c-4-4-4-9 0-13 2-1 4-2 6-2 2 0 5 1 6 2l6 7c4 3 4 9 0 12-3 4-9 4-12 0z m274 0c-3 4-9 4-12 0-4-3-4-9 0-12l6-7c1-1 4-2 6-2 2 0 4 1 6 2 4 4 4 9 0 13z m-268 268c-3 3-9 3-12 0-4-4-4-9 0-13l6-6c2-2 4-2 6-2 3 0 5 0 6 2 4 4 4 9 0 13z"/>
<glyph glyph-name="cart" unicode="&#57361;" d="M501 420l-406 0c-1 0-1 0-2 0l-17 55c0 0 0 1-1 1 0 6-5 11-10 11 0 0 0 0 0 0l-54-1c-6 0-11-5-11-11 0-6 5-11 11-11 0 0 0 0 0 0l46 1 105-349c-11-10-18-23-18-38 0-29 24-53 53-53 28 0 52 24 52 53 0 7-2 14-5 21l152 0c-3-7-5-14-5-21 0-29 24-53 52-53 29 0 53 24 53 53 0 28-24 52-53 52-11 0-21-4-29-9l-188 0c-8 5-19 9-29 9-6 0-11-1-16-3l-16 52 277 0c5 0 9 4 10 8 0 1 1 1 1 2l59 216c0 1 0 3 0 4 0 0 0 0 0 0 0 7-5 11-11 11z m-58-312c17 0 31-14 31-30 0-17-14-31-31-31-16 0-30 14-30 31 0 16 14 30 30 30z m-246 0c16 0 30-14 30-30 0-17-14-31-30-31-17 0-31 14-31 31 0 16 14 30 31 30z m237 93l-275 0-60 198 388 0z"/>
<glyph glyph-name="startup" unicode="&#57362;" d="M20 12c0-6-4-11-10-11-5 0-10 5-10 11 0 5 5 10 10 10 6 0 10-5 10-10z m257 255c0-6-4-10-10-10-6 0-10 4-10 10 0 5 4 10 10 10 6 0 10-5 10-10z m121 127c-8 8-18 12-30 12-11 0-22-4-30-12-17-17-17-44 0-60 8-9 19-13 30-13 11 0 22 4 30 13 17 16 17 43 0 60z m-14-46c-9-9-23-9-32 0-9 9-9 23 0 32 5 4 10 6 16 6 6 0 12-2 16-6 9-9 9-23 0-32z m-259-247c-5 2-11 0-13-5l-12-24c-5-10-16-17-27-18l-14-1c-3 0-4 1-5 2-1 0-2 2-2 4l1 14c1 12 8 22 19 27l24 12c5 3 7 9 4 14-2 5-8 7-13 4l-24-12c-17-8-28-25-30-44l-1-13c0-8 3-15 8-21 5-5 11-7 18-7 1 0 2 0 2 0l14 1c19 1 36 12 44 29l12 24c2 5 0 11-5 14z m380 403c-5 4-11 7-18 6l-9 0c-84-5-162-46-215-111l-22-27-58 1c0 0 0 0 0 0-46 0-89-17-121-50l-59-59c-3-2-4-7-2-10 1-4 5-7 9-7l124-6-5-6c-2-4-3-8-1-12 2-3 4-7 6-10l-29-35c-3-3-3-8-2-11 7-14 15-26 26-37 11-10 23-19 37-26 2 0 3-1 4-1 3 0 5 1 7 2 6 6 14 12 21 18 5 4 10 8 15 12 3-1 6-3 9-5 1-1 3-1 4-1 3 0 5 1 6 2l7 5 7-125c0-4 2-7 6-9 1 0 3 0 4 0 2 0 5 1 7 2l59 59c32 33 50 76 50 121l0 55 23 18c70 54 112 136 117 224l0 5c0 7-2 13-7 18z m-472-238l43 43c29 29 66 44 107 44l42-1-75-92z m152-128c-5-4-11-9-16-13-9 5-18 12-26 20-7 7-13 16-19 25l22 26c7-9 14-18 22-25 0 0 0 0 0 0 0 0 0 0 0 0 0 0 0 0 0 0 8-9 17-17 27-24-3-3-7-6-10-9z m167 46c0-40-16-78-44-106l-43-43-6 116 93 73z m140 298c-4-82-44-158-109-209l-158-122c-13 8-25 17-36 27l53 53c4 4 4 10 0 14-4 4-10 4-14 0l-53-53c-10 11-18 23-26 35l129 159c50 61 123 99 201 104l10 0c1 0 2 0 2 0 0-1 1-2 1-3z"/>
<glyph glyph-name="startup-laptop" unicode="&#57363;" d="M500 82l-201 0c-5 0-10-4-10-10 0-9-7-16-17-16l-33 0c-9 0-16 7-16 16 0 6-5 10-10 10l-157 0 0 257c0 12 10 21 21 21l125 0 0-1-21-19c0-1 0-1 0-1-18-18-28-42-28-68l0-44c0-4 2-8 6-9 1-1 3-1 4-1 2 0 5 1 7 2l43 40c2-2 4-4 6-5 12-3 24-5 36-5 1 0 1 0 1 0 12 0 25 2 36 5 3 1 5 3 6 5l44-40c2-1 5-2 7-2 1 0 3 0 4 1 4 1 6 5 6 9l0 44c0 26-10 50-28 68l-19 20 0 1 123 0c11 0 21-9 21-21l0-183c0-6 4-10 10-10 5 0 10 4 10 10l0 183c0 23-19 41-41 41l-121 0c4 45-12 90-42 124l-2 2c-3 4-8 6-13 6 0 0 0 0 0 0-5 0-9-2-13-6l-3-4c-30-33-44-78-41-122l-123 0c-22 0-41-18-41-41l0-257-24 0c-6 0-10-4-10-10l0-15c0-32 25-57 57-57l394 0c32 0 57 25 57 57l0 15c0 6-4 10-10 10z m-196 214l4 37 9-8c14-14 22-33 22-54l0-22-37 34z m-48 193l1 2c29-32 42-74 36-117l-2-18c0 0 0 0 0 0l-9-76c0 0 0 0 0 0l-1-8c-9-2-17-3-25-3 0 0 0 0-1 0-8 0-16 1-24 3l-8 76 0 8c0 0 0 0 0 0l-3 21c-4 41 9 82 36 112z m-46-206l-37-34 0 22c0 21 8 40 22 54l10 9z m243-263l-394 0c-21 0-37 16-37 37l0 5 182 0c4-15 19-26 35-26l33 0c17 0 31 11 36 26l182 0 0-5 0 0c0-21-16-37-37-37z m-28 318l-50 0c-6 0-10-5-10-10 0-6 4-10 10-10l40 0 0-194-314 0 0 194 31 0c6 0 10 4 10 10 0 5-4 10-10 10l-41 0c-6 0-10-5-10-10l0-214c0-6 4-10 10-10l334 0c5 0 10 4 10 10l0 214c0 5-5 10-10 10z m-159 68c0-5-4-10-10-10-6 0-10 5-10 10 0 6 4 10 10 10 6 0 10-4 10-10z m210-294c0-5-5-10-10-10-6 0-10 5-10 10 0 6 4 10 10 10 5 0 10-4 10-10z m-246 122c-6 0-10-4-10-10l0-40c0-6 4-10 10-10 6 0 10 4 10 10l0 40c0 6-4 10-10 10z m51 3c-6 0-10-5-10-10l0-60c0-6 4-10 10-10 5 0 10 4 10 10l0 60c0 5-5 10-10 10z"/>
<glyph glyph-name="headset" unicode="&#57364;" d="M469 377c2 5 3 9 3 14 0 7-3 14-7 21-24 30-54 55-89 73-35 17-75 27-117 27l0 0c0 0 0 0 0 0l0 0c-85 0-161-39-209-100-5-6-8-14-8-21 0-5 1-9 3-13-24-39-39-84-39-133l0-96c0-5 4-9 9-9 6 0 10 4 10 9l0 96c0 43 12 83 33 118 6-4 12-6 19-6 10 0 20 4 27 13 36 45 92 74 155 74 31 0 60-7 86-20 25-13 47-31 65-54 6-9 17-13 27-13 7 0 13 2 19 5 20-34 31-74 31-117l0-142c0-17-7-28-18-39-11-11-27-21-45-21l-109 0c-1 14-12 25-25 25l-62 0c-13 0-24-11-24-25l0-18c0-14 11-25 24-25l62 0c13 0 24 11 25 25l109 0c22 0 43 8 58 22 15 14 24 34 24 56l0 142c0 49-14 94-37 132z m-22 2c-3-2-6-4-10-4-5 0-10 3-13 7-19 24-43 44-71 58-28 14-60 22-94 22-69 0-130-31-169-80-3-4-8-7-13-7-4 0-7 2-10 4-4 3-6 7-6 12 0 3 1 7 3 9 45 57 116 93 195 93l0 0c39 0 76-9 109-25 32-16 60-39 82-68l0 0c2-3 3-6 3-9 0-5-2-9-6-12z m-151-354c0-4-3-6-6-6l-62 0c-3 0-6 2-6 6l0 18c0 3 3 6 6 6l62 0c3 0 6-3 6-6z m-179 277l-49 0c-14 0-25-11-25-24l0-161c0-13 11-24 25-24l49 0c14 0 25 11 25 24l0 161c0 13-11 24-25 24z m6-185c0-3-2-6-6-6l-49 0c-3 0-6 3-6 6l0 161c0 3 3 6 6 6l49 0c4 0 6-3 6-6z m321 185l-49 0c-14 0-25-11-25-25l0-160c0-13 11-25 25-25l49 0 0 0c14 0 25 12 25 25l0 160c0 14-11 25-25 25z m6-185c0-3-3-6-6-6l-49 0c-4 0-6 3-6 6l0 160c0 4 2 7 6 7l49 0c3 0 6-3 6-7z"/>
<glyph glyph-name="megaphone" unicode="&#57365;" d="M158 49c-4 0-7 1-11 2-6 3-11 8-14 14l-47 116-25 0c-15 0-28 12-28 27l0 4c-20 11-33 32-33 55 0 23 13 45 33 56l0 2c0 14 13 26 28 26l124 0c75 0 149 24 208 67l41 30c0 0 0 0 0 0l16 12c5 4 12 4 18 1 5-2 8-7 8-13l0-97c22-17 36-49 36-84 0-35-14-67-36-84l0-97c0-5-3-10-8-13-6-3-13-2-18 1l-54 40c-56 41-125 64-196 67l8-19c1-2 1-3 0-4 0-2-1-3-2-3l-17-7 20-52c6-13-1-29-14-34l-27-11c-3-1-7-2-10-2z m-61 132l45-112c2-4 5-7 9-9 4-2 9-2 13 0l27 11c8 4 12 13 9 22l-22 56c0 0 0 0 0 0 0 0 0 0 0 0l-13 32z m345-88l14-11c2-1 5-1 7 0 1 0 3 2 3 4l0 362c0 3-2 4-3 4-2 1-5 2-7 0l-14-11z m-197 93c57-9 111-31 157-64l30-22 0 334-33-24c-45-33-98-55-154-64z m-69-5l9-24 12 5-8 19c-1 0-1 0-1 0z m-115 160c-10 0-18-7-18-16l0-117c0-10 8-17 18-17l127 0c16 0 32-1 47-3l0 157c-16-3-33-4-50-4l-124 0z m415-3l0-141c16 15 26 42 26 70 0 28-10 55-26 71z m-443-27c-14-10-23-26-23-44 0-17 9-34 23-44z m26-76c-3 0-5 2-5 5l0 77c0 8 6 14 14 14l127 0c3 0 5-2 5-5 0-3-2-5-5-5l-127 0c-2 0-4-2-4-4l0-77c0-3-2-5-5-5z"/>
<glyph glyph-name="quotation-marks" unicode="&#57366;" d="M110 276c0 66 0 77 55 77l0 122c-128 0-165-86-165-237l0-201 238 0 0 201-128 0z m274-38l0 38c0 66 0 77 55 77l0 122c-128 0-165-86-165-237l0-201 238 0 0 201z"/>
<glyph glyph-name="apple" unicode="&#57367;" d="M68 324c-43-75-15-189 32-258 24-35 49-66 82-66 0 0 1 0 2 0 15 1 26 5 37 10 12 5 25 11 45 11 19 0 31-6 42-11 12-5 24-10 41-9 37 0 60 34 81 63 21 31 31 61 35 73l0 0c1 2 0 4-2 5 0 0 0 0-1 0-6 3-64 29-64 98-1 57 43 87 52 92l0 1c1 0 2 1 2 2 0 1 0 3-1 3-30 45-76 51-95 52-3 0-5 1-8 1-22 0-43-9-60-15-12-5-22-9-29-9-8 0-18 4-29 9-16 6-34 13-53 13 0 0 0 0-1 0-44-1-85-26-108-65z m288 188c-26-1-58-17-77-40-16-18-32-49-28-81 0-2 2-3 4-3 2-1 4-1 5-1 26 0 54 15 73 38 20 24 30 55 27 83 0 2-2 4-4 4z"/>
<glyph glyph-name="android" unicode="&#57368;" d="M309 0c18 0 32 15 32 32l0 75 22 0c13 0 21 8 21 21l0 214-256 0 0-214c0-13 8-21 21-21l22 0 0-75c0-17 14-32 32-32 17 0 32 15 32 32l0 75 42 0 0-75c0-17 15-32 32-32z m129 128c17 0 32 15 32 32l0 150c0 17-15 32-32 32-17 0-32-15-32-32l0-150c0-17 15-32 32-32z m-364 0c17 0 32 15 32 32l0 150c0 17-15 32-32 32-17 0-32-15-32-32l0-150c0-17 15-32 32-32z m285 381c-5 4-11 4-15 0l-29-29-1-1c-17 8-36 13-58 13 0 0 0 0 0 0l0 0c0 0 0 0 0 0-22 0-41-5-58-13l-1 1-29 29c-4 4-10 4-15 0-4-5-4-11 0-15l28-28c-9-6-17-13-24-22-17-20-28-46-29-74 0 0 0 0 0-1 0-2 0-4 0-6l256 0c0 2 0 4 0 6 0 1 0 1 0 1-1 28-12 54-29 74-7 9-15 16-24 22l28 28c4 4 4 10 0 15z m-156-108c-9 0-17 7-17 16 0 9 8 16 17 16 8 0 16-7 16-16 0-9-8-16-16-16z m106 0c-8 0-16 7-16 16 0 9 8 16 16 16 9 0 17-7 17-16 0-9-8-16-17-16z"/>
<glyph glyph-name="pdf" unicode="&#57369;" d="M418 218c-32 0-72-6-85-8-54 57-69 89-73 97 5 13 21 58 24 117 1 30-5 52-19 66-13 14-29 15-34 15-16 0-44-9-44-64 0-48 23-99 29-112-33-94-68-159-75-173-131-49-141-96-141-110 0-24 17-39 46-39 70 0 135 118 145 139 50 20 117 32 134 35 48-46 105-59 128-59 18 0 59 0 59 43 0 39-50 53-94 53z m-3-28c38 0 48-13 48-19 0-4-2-18-22-18-18 0-50 11-81 33 13 2 32 4 55 4z m-186 288c3 0 6-1 8-4 11-15 2-65-9-103-10 33-18 84-7 102 2 3 4 5 8 5z m-18-297c13 28 29 69 37 91 17-28 39-54 53-68-41-9-72-17-90-23z m-184-139c-1 1-1 4 0 6 1 6 12 34 91 70-11-18-29-44-48-63-14-12-24-19-32-19-2 0-6 1-11 6z"/>
<glyph glyph-name="youtube" unicode="&#57370;" d="M512 359c0 42-34 76-77 76l-358 0c-43 0-77-34-77-76l0-206c0-42 34-76 77-76l358 0c43 0 77 34 77 76z m-307-190l0 193 146-96z"/>
<glyph glyph-name="images" unicode="&#57371;" d="M454 394l-443 0c-6 0-11-4-11-9l0-315c0-6 5-11 11-11l443 0c5 0 9 5 9 11l0 315c0 5-4 9-9 9z m-11-315l-423 0 0 36 138 138 131-122c4-3 10-3 14 1l72 72 68-60z m0 91l-62 55c-4 3-9 3-13-1l-72-72-131 122c-4 3-10 3-14-1l-131-130 0 231 423 0z m60 283l-443 0c-5 0-11-4-11-9l0-40 20 0 0 29 423 0 0-295-19 0 0-20 30 0c6 0 9 5 9 11l0 315c0 5-3 9-9 9z m-197-127c-27 0-49-23-49-50 0-27 22-49 49-49 27 0 49 22 49 49 0 27-22 50-49 50z m0-79c-16 0-29 13-29 29 0 17 13 30 29 30 17 0 30-13 30-30 0-16-13-29-30-29z"/>
<glyph glyph-name="server" unicode="&#57372;" d="M477 104c-4 35-33 62-68 62-22 0-43-11-56-29-2 1-5 1-7 1-20 0-38-13-43-33-17-9-27-27-27-46 0-30 24-55 53-55l92 0c0 0 1 0 1 0 1 0 1 0 2 0l37 0c27 0 50 23 50 51 0 23-14 42-34 49z m-16-83l-37 0-2 0-93 0c-20 0-36 17-36 38 0 14 8 27 21 33l3 2 1 4c3 13 15 23 28 23 3 0 6-1 9-2l6-2 4 6c9 17 25 26 44 26 28 0 51-23 51-52l0-7 7-1c15-3 27-17 27-34 0-18-15-34-33-34z m-371 436c-22 0-39-18-39-39 0-21 17-38 39-38 21 0 38 17 38 38 0 21-17 39-38 39z m0-60c-12 0-22 9-22 21 0 12 10 21 22 21 11 0 21-9 21-21 0-12-10-21-21-21z m345 34c0-5-4-9-8-9-5 0-9 4-9 9 0 5 4 8 9 8 4 0 8-3 8-8z m-34 0c0-5-4-9-8-9-5 0-9 4-9 9 0 5 4 8 9 8 4 0 8-3 8-8z m51-26c0-4-4-8-8-8-5 0-9 4-9 8 0 5 4 9 9 9 4 0 8-4 8-9z m-34 0c0-4-4-8-8-8-5 0-9 4-9 8 0 5 4 9 9 9 4 0 8-4 8-9z m-51 26c0-5-4-9-9-9-4 0-8 4-8 9 0 5 4 8 8 8 5 0 9-3 9-8z m17-26c0-4-4-8-9-8-4 0-8 4-8 8 0 5 4 9 8 9 5 0 9-4 9-9z m-51 26c0-5-4-9-9-9-4 0-8 4-8 9 0 5 4 8 8 8 5 0 9-3 9-8z m17-26c0-4-4-8-9-8-4 0-8 4-8 8 0 5 4 9 8 9 5 0 9-4 9-9z m-51 26c0-5-4-9-9-9-5 0-8 4-8 9 0 5 3 8 8 8 5 0 9-3 9-8z m17-26c0-4-4-8-9-8-5 0-8 4-8 8 0 5 3 9 8 9 5 0 9-4 9-9z m196-37l0 100c0 22-18 40-39 40l-434 0c-21 0-39-18-39-40l0-100c0-13 6-24 15-31-9-7-15-18-15-31l0-100c0-13 6-24 15-31-9-7-15-18-15-31l0-100c0-22 18-40 39-40l200 0 0 17-200 0c-12 0-22 10-22 23l0 100c0 12 10 22 22 22l285 0 0 17-285 0c-12 0-22 10-22 23l0 100c0 13 10 23 22 23l434 0c12 0 22-10 22-23l0-123 17 0 0 123c0 13-6 24-15 31 9 7 15 18 15 31z m-473-22c-12 0-22 10-22 22l0 100c0 13 10 23 22 23l434 0c12 0 22-10 22-23l0-100c0-12-10-22-22-22z m12-90c0-21 17-38 39-38 21 0 38 17 38 38 0 21-17 38-38 38-22 0-39-17-39-38z m60 0c0-12-10-21-21-21-12 0-22 9-22 21 0 12 10 21 22 21 11 0 21-9 21-21z m324 13c0-5-4-9-8-9-5 0-9 4-9 9 0 5 4 8 9 8 4 0 8-3 8-8z m-34 0c0-5-4-9-8-9-5 0-9 4-9 9 0 5 4 8 9 8 4 0 8-3 8-8z m51-26c0-4-4-8-8-8-5 0-9 4-9 8 0 5 4 9 9 9 4 0 8-4 8-9z m-34 0c0-4-4-8-8-8-5 0-9 4-9 8 0 5 4 9 9 9 4 0 8-4 8-9z m-51 26c0-5-4-9-9-9-4 0-8 4-8 9 0 5 4 8 8 8 5 0 9-3 9-8z m17-26c0-4-4-8-9-8-4 0-8 4-8 8 0 5 4 9 8 9 5 0 9-4 9-9z m-51 26c0-5-4-9-9-9-4 0-8 4-8 9 0 5 4 8 8 8 5 0 9-3 9-8z m17-26c0-4-4-8-9-8-4 0-8 4-8 8 0 5 4 9 8 9 5 0 9-4 9-9z m-51 26c0-5-4-9-9-9-5 0-8 4-8 9 0 5 3 8 8 8 5 0 9-3 9-8z m17-26c0-4-4-8-9-8-5 0-8 4-8 8 0 5 3 9 8 9 5 0 9-4 9-9z m-265-149c0-21 17-39 39-39 21 0 38 18 38 39 0 21-17 38-38 38-22 0-39-17-39-38z m60 0c0-12-10-21-21-21-12 0-22 9-22 21 0 12 10 21 22 21 11 0 21-9 21-21z"/>
<glyph glyph-name="present" unicode="&#57373;" d="M512 404l-137 0c7 11 11 23 11 36 0 17-6 33-18 45-25 24-65 24-89 0l-25-26-26 26c-24 24-64 24-89 0-12-12-18-28-18-45 0-13 4-25 11-36l-132 0 0-126 45 0 0-269 431 0 0 269 36 0z m-220 68c17 17 46 17 63 0 9-8 13-20 13-32 0-12-4-23-13-32l-4-4-127 0 42 43z m-140-64c-8 9-13 20-13 32 0 12 5 24 13 32 17 17 46 17 63 0l26-25-32-32c-2-2-3-4-5-6-1-1-1-2-2-2 0-1-1-2-1-3l-45 0z m-134-112l0 90 234 0 0-90z m234-18l0-107-189 0 0 107z m-189-125l189 0 0-126-189 0z m206-126l0 126 189 0 0-126z m189 144l-189 0 0 107 189 0z m36 125l-225 0 0 90 225 0z"/>
<glyph glyph-name="checkbox" unicode="&#57374;" d="M451 330c-5 0-8-4-8-9l0-278-426 0 0 426 426 0 0-9c0-5 3-9 8-9 5 0 9 4 9 9l0 26-460 0 0-460 460 0 0 295c0 5-4 9-9 9z m58 119c-3 3-8 3-12 0l-263-263-113 113c-4 4-9 4-12 0-4-3-4-9 0-12l119-120c2-1 4-2 6-2 3 0 5 1 6 2l269 269c4 4 4 9 0 13z"/>
<glyph glyph-name="download" unicode="&#57375;" d="M435 335c-5 77-68 139-144 139-46 0-91-23-119-60-1 0-1 0-2 1-2 0-4 1-5 2-1 0-2 1-3 1-2 1-4 1-5 2-1 0-2 0-3 0-2 1-4 1-6 1-1 1-2 1-3 1-3 0-6 0-8 0-43 0-77-34-77-76 0-2 0-3 0-4-36-19-60-60-60-100 0-61 49-110 110-110l44 0c4 0 8 4 8 9 0 5-4 8-8 8l-44 0c-51 0-93 42-93 93 0 35 23 72 55 87l5 3 0 5c0 1 0 2 0 3l0 2 0 1c0 1 0 2 0 3 0 33 27 59 60 59 2 0 5 0 7 0 1 0 2 0 2-1 3 0 5 0 7-1 0 0 1 0 1 0 2-1 5-2 7-3 1 0 1-1 2-1 2-1 4-2 6-3 16-11 27-29 27-50 0-5 4-9 9-9 5 0 8 4 8 9 0 23-10 44-27 58 24 32 65 53 105 53 66 0 121-53 127-119-9 1-22 1-35-1-5-1-8-5-7-10 0-4 4-7 8-7 0 0 1 0 1 0 19 3 39 0 40 0 40-7 70-44 70-85 0-47-38-86-86-86l-34 0c-4 0-8-3-8-8 0-5 4-9 8-9l34 0c57 0 103 46 103 103 0 47-33 89-77 100z m-108-214l-54-53 0 175c0 5-4 9-8 9-5 0-9-4-9-9l0-175-54 53c-3 4-8 4-12 0-3-3-3-8 0-12l68-68c1-1 2-2 3-2 1 0 2-1 4-1 1 0 2 1 3 1 1 0 2 1 3 2l68 68c3 4 3 9 0 12-4 4-9 4-12 0z"/>
<glyph glyph-name="flag" unicode="&#57376;" d="M399 299l90 131c2 3 2 6 1 9-2 3-5 5-8 5l-256 0 0 34c0 5-4 8-8 8l-180 0 0 17c0 5-3 9-8 9-5 0-9-4-9-9l0-494c0-5 4-9 9-9 5 0 8 4 8 9l0 213 94 0c-5-7-8-16-8-26 0-23 19-42 42-42l316 0c3 0 6 1 8 4 1 3 1 6-1 9z m-361 170l171 0 0-230-171 0z m128-298c-14 0-25 11-25 25 0 14 11 26 25 26l52 0c4 0 8 4 8 8l0 197 240 0-85-124c-2-2-2-6 0-9l85-123z"/>
<glyph glyph-name="attachment" unicode="&#57377;" d="M512 306c-1 3-3 6-6 7-83 33-157 7-178-2l-143 122c5 44-19 74-20 75-2 3-4 4-7 4-3 0-6-1-8-3l-147-147c-2-2-3-5-3-8 0-2 2-5 4-7 27-21 61-20 75-19l122-145c-8-21-34-99-3-177 2-3 4-5 7-6 1 0 2 0 2 0 3 0 5 1 7 3l141 141 131-132c2-1 4-2 7-2 2 0 5 1 7 2 3 4 3 10 0 14l-131 131 140 141c2 2 3 5 3 8z m-171-149l-130-130c-23 78 10 153 10 154 2 3 1 7-1 10l-130 153c-2 2-5 3-7 3-1 0-1 0-2 0 0 0-31-4-56 10l130 130c6-11 14-32 10-57-1-3 0-6 3-8l153-130c2-3 7-3 10-1 1 0 71 35 153 9z"/>
<glyph glyph-name="alert" unicode="&#57379;" d="M478 90c-43 43-65 95-65 152l0 84c0 64-43 106-80 123-10 5-21 8-32 11l0 5c0 26-21 47-47 47-25 0-46-21-46-47l0-6c-10-2-20-6-29-10-41-19-82-64-83-123l0-84c0-59-21-110-62-152-3-2-4-6-3-9 1-3 4-6 8-6l88-16c17-2 32-5 46-7 16-32 48-52 83-52 35 0 67 20 83 52 14 2 30 5 46 7l88 16c4 0 7 3 8 6 1 3 0 7-3 9z m-252 375c0 16 13 28 28 28 16 0 28-12 28-28l0-1c-18 2-37 2-56-1z m30-446c-23 0-45 11-60 30 21-2 41-3 60-3 19 0 39 1 60 4-14-20-36-31-60-31z m126 59c-18-3-34-6-50-8 0 0 0 0 0 0-7-1-13-1-20-2 0 0 0 0 0 0-6-1-12-1-18-2-1 0-2 0-3 0-5 0-10 0-15-1-1 0-2 0-3 0-11 0-23 0-34 0-1 0-2 0-3 0-5 1-10 1-15 1-1 0-2 0-3 0-6 1-12 1-17 2-1 0-1 0-1 0-6 1-13 1-20 2 0 0 0 0 0 0-15 2-32 5-50 8l-71 12c37 42 56 93 56 152l0 84c0 50 36 89 71 106 11 5 22 8 33 11 0 0 0 0 0 0 23 5 48 5 71 0 0 0 0 1 0 0 12-2 24-6 36-11 34-16 69-55 68-106l0-84c0-56 21-108 59-152z m-68 328c-36 17-80 17-116 0-20-9-55-37-55-80 0-5 4-9 9-9 0 0 0 0 0 0 5 0 9 4 9 9 1 34 28 56 45 64 31 14 69 14 100 0 5-3 11-1 13 4 2 5 0 10-5 12z"/>
<glyph glyph-name="upload" unicode="&#57380;" d="M435 335c-5 77-68 139-144 139-46 0-91-23-119-60-1 0-1 0-2 1-2 0-4 1-5 2-1 0-2 1-3 1-2 1-4 1-5 2-1 0-2 0-3 0-2 1-4 1-6 1-1 1-2 1-3 1-3 0-6 0-8 0-43 0-77-34-77-76 0-2 0-3 0-4-36-19-60-60-60-100 0-61 49-110 110-110l44 0c4 0 8 4 8 9 0 5-4 8-8 8l-44 0c-51 0-93 42-93 93 0 35 23 72 55 87l5 3 0 5c0 1 0 2 0 3l0 2 0 1c0 1 0 2 0 3 0 33 27 59 60 59 2 0 5 0 7 0 1 0 2 0 2-1 3 0 5 0 7-1 0 0 1 0 1 0 2-1 5-2 7-3 1 0 1-1 2-1 2-1 4-2 6-3 16-11 27-29 27-50 0-5 4-9 9-9 5 0 8 4 8 9 0 23-10 44-27 58 24 32 65 53 105 53 66 0 121-53 127-119-9 1-22 1-35-1-5-1-8-5-7-10 0-4 4-7 8-7 0 0 1 0 1 0 19 3 39 0 40 0 40-7 70-44 70-85 0-47-38-86-86-86l-34 0c-4 0-8-3-8-8 0-5 4-9 8-9l34 0c57 0 103 46 103 103 0 47-33 89-77 100z m-164-86c-1 1-2 2-3 2-2 1-5 1-7 0-1 0-2-1-3-2l-68-68c-3-3-3-9 0-12 2-2 4-3 6-3 2 0 5 1 6 3l54 54 0-176c0-5 4-9 9-9 4 0 8 4 8 9l0 176 54-54c1-2 4-3 6-3 2 0 4 1 6 3 3 3 3 9 0 12z"/>
<glyph glyph-name="key" unicode="&#57381;" d="M366 512c-81 0-147-66-147-146 0-30 10-58 25-82l-241-241c-4-4-4-9 0-13 1-2 4-3 6-3 2 0 5 1 7 3l39 39 67-66c1-2 4-3 6-3 2 0 5 1 6 3 4 3 4 9 0 13l-66 66 33 33 48-48c2-2 4-3 6-3 3 0 5 1 7 3 3 3 3 9 0 13l-48 48 32 33 67-67c2-2 4-3 6-3 3 0 5 1 7 3 3 4 3 9 0 13l-67 67 96 96c27-31 67-51 111-51 80 0 146 66 146 147 0 80-66 146-146 146z m0-274c-71 0-128 57-128 128 0 70 57 128 128 128 70 0 128-58 128-128 0-71-58-128-128-128z"/>
<glyph glyph-name="print" unicode="&#57382;" d="M427 239c23 0 42 19 42 43 0 23-19 42-42 42-24 0-43-19-43-42 0-24 19-43 43-43z m0 68c14 0 25-11 25-25 0-15-11-26-25-26-14 0-26 11-26 26 0 14 12 25 26 25z m-69-162l-204 0c-5 0-9-4-9-8 0-5 4-9 9-9l204 0c5 0 9 4 9 9 0 4-4 8-9 8z m0-43l-204 0c-5 0-9-3-9-8 0-5 4-9 9-9l204 0c5 0 9 4 9 9 0 5-4 8-9 8z m77 265l0 145-358 0 0-145-77 0 0-290 51 0 0-26 26 0 0-51 358 0 0 51 26 0 0 26 51 0 0 290z m-341 128l324 0 0-128-324 0z m-17-145l418 0 0-137-478 0 0 137z m-9-282l0 60c0 5-4 9-8 9-5 0-9-4-9-9l0-34-34 0 0 102 60 0 0-128z m350-51l-324 0 0 179 324 0z m43 77l0 34c0 5-4 9-9 9-4 0-8-4-8-9l0-60-9 0 0 128 60 0 0-102z"/>
<glyph glyph-name="power" unicode="&#57383;" d="M323 466c-5 1-10-1-12-6-1-5 2-10 7-12 93-27 157-113 157-210 0-121-98-220-219-220-121 0-219 99-219 220 0 97 65 183 158 210 4 2 7 7 6 12-2 5-7 7-12 6-100-29-171-123-171-228 0-131 107-238 238-238 131 0 238 107 238 238 0 105-71 198-171 228z m-67-201c5 0 9 4 9 9l0 229c0 5-4 9-9 9-5 0-9-4-9-9l0-229c0-5 4-9 9-9z"/>
<glyph glyph-name="filter" unicode="&#57384;" d="M502 443c0 45-124 69-246 69-122 0-246-24-246-69 0-10 7-19 18-27l169-232 0-172c0-4 3-8 6-10l7-2 105 105 0 79 169 232 0 0c11 8 18 17 18 27z m-246 49c138 0 226-29 226-49 0-4-4-9-11-13l-1 0 1 0c-28-18-106-36-215-36-109 0-187 18-215 36l0 0-4 2c-4 4-7 8-7 11 0 20 88 49 226 49z m39-379l-78-79 0 144 78 0z m5 84l-88 0-147 201c47-16 119-24 191-24 72 0 144 8 191 24z"/>
<glyph glyph-name="attach" unicode="&#57385;" d="M497 321c-4 4-10 4-14 0l-270-270c-20-20-47-31-75-31-29 0-56 11-75 31-20 20-31 46-31 75 0 28 11 55 31 75l270 271c29 28 74 27 105-5 31-31 33-76 4-104l-254-255c-14-14-37-14-52 0-14 14-14 38 0 52l173 172c4 4 4 10 0 14-4 4-11 4-14 0l-173-172c-22-22-22-58 0-80 22-22 58-22 80 0l254 255c37 36 35 93-4 132-39 40-96 41-133 5l-270-271c-24-24-37-55-37-89 0-34 13-66 37-89 23-24 55-37 89-37 33 0 65 13 89 37l270 270c4 4 4 11 0 14z"/>
<glyph glyph-name="sound" unicode="&#57386;" d="M242 446c-8 5-18 4-26-1 0 0-1 0-1 0l-116-98-90 0c-5 0-9-4-9-9l0-162c0-2 1-4 3-6 1-1 3-2 6-2l90 0 116-107c0 0 1 0 1-1 4-2 9-3 14-3 4 0 8 1 12 3 9 5 14 14 14 24l0 338c0 10-5 19-14 24z m-3-362c0-4-2-7-5-9-1-1-5-2-9 0l-114 105 0 39c0 5-4 8-9 8-4 0-8-3-8-8l0-34-77 0 0 145 77 0 0-34c0-5 4-9 8-9 5 0 9 4 9 9l0 38 114 97c4 2 8 1 9 0 3-2 5-5 5-9z m205 173c0 71-45 135-113 158-4 1-9-1-11-6-1-4 1-9 6-11 60-20 101-77 101-141 0-64-41-120-101-141-5-2-7-6-6-11 2-3 5-6 9-6 0 0 1 0 2 1 68 23 113 86 113 157z m-65 201c-4 1-9-1-11-5-2-4 0-9 5-11 74-32 122-104 122-185 0-83-50-157-128-187-5-1-7-6-5-11 1-3 4-5 8-5 1 0 2 0 3 0 84 33 139 113 139 203 0 88-52 166-133 201z m-12-201c0 51-34 97-83 111-5 1-9-1-11-6-1-5 2-9 6-11 42-12 71-50 71-94 0-43-29-82-71-94-4-1-7-6-6-11 1-3 5-6 9-6 0 0 1 0 2 1 49 14 83 59 83 110z"/>
<glyph glyph-name="lock" unicode="&#57387;" d="M364 305l0 103c0 57-51 104-112 104-62 0-113-47-113-104l0-103-81 0 0-305 396 0 0 305z m-207 103c0 47 43 86 95 86 52 0 94-39 94-86l0-103-189 0z m279-390l-360 0 0 36 360 0z m-360 54l0 215 360 0 0-215z m180 162c-20 0-36-17-36-36l0-54c0-20 16-36 36-36 20 0 36 16 36 36l0 54c0 19-16 36-36 36z m18-90c0-10-8-18-18-18-10 0-18 8-18 18l0 54c0 10 8 18 18 18 10 0 18-8 18-18z"/>
<glyph glyph-name="alert-ring" unicode="&#57389;" d="M401 243l0 77c1 58-39 97-73 113-9 4-19 8-29 10l0 5c0 24-19 43-43 43-24 0-43-19-43-43l0-6c-9-2-18-5-27-9-37-18-75-59-75-113l0-77c0-54-19-101-57-139-3-2-3-5-2-8 1-3 3-6 6-6l81-14c15-3 29-5 42-7 15-29 45-48 77-48 32 0 61 19 76 48 13 2 27 4 42 7l81 14c3 0 5 3 6 6 1 3 0 6-2 8-40 40-60 86-60 139z m-171 205c0 14 12 26 26 26 14 0 26-12 26-26l0-2c-17 3-35 3-52 0z m28-410c-22 0-42 11-55 29 19-2 37-3 54-3 18 0 36 1 55 3-13-18-33-29-54-29z m115 55c-17-3-32-6-46-7 0 0 0 0 0 0-6-1-12-2-18-2 0 0 0 0 0 0-6-1-11-1-16-2-1 0-2 0-3 0-5 0-9-1-14-1-1 0-2 0-3 0-10 0-21 0-31 0-1 0-2 0-3 0-5 0-9 1-14 1-1 0-2 0-3 0-5 1-10 1-15 2 0 0-1 0-1 0-6 0-12 1-18 2 0 0 0 0 0 0-14 1-29 4-46 7l-65 11c34 39 51 86 51 139l0 77c0 46 33 82 66 97 9 5 19 8 29 10 1 0 1 0 1 0 21 5 43 5 64 1 1 0 1 0 1 0 11-2 22-6 32-11 32-14 64-50 63-97l0-77c0-51 19-99 54-139z m-62 301c-33 15-74 15-107 0-18-9-50-34-50-74 0-5 3-9 8-9 0 0 0 0 0 0 5 0 9 4 9 9 0 31 25 51 41 58 28 14 63 13 92 0 4-2 9 0 11 5 2 4 0 9-4 11z m-270-77c-3 4-9 4-12 0-19-18-29-43-29-69 0-27 10-52 29-70 2-2 4-3 6-3 2 0 4 1 6 3 3 3 3 8 0 12-15 15-24 36-24 58 0 21 9 42 24 57 3 4 3 9 0 12z m30-122c2 0 4 0 6 2 3 3 3 9 0 12-22 22-22 58 0 79 3 4 3 9 0 12-3 4-9 4-12 0-29-28-29-74 0-103 2-2 4-2 6-2z m412 122c-3 4-9 4-12 0-3-3-3-8 0-12 15-15 24-36 24-57 0-22-9-43-24-58-3-4-3-9 0-12 2-2 4-3 6-3 2 0 4 1 6 3 19 18 29 43 29 70 0 26-10 51-29 69z m-48-17c-3-3-3-8 0-12 22-21 22-57 0-79-3-3-3-9 0-12 2-2 4-2 6-2 2 0 5 0 6 2 29 29 29 75 0 103-3 4-9 4-12 0z"/>
<glyph glyph-name="folder-open" unicode="&#57390;" d="M491 329l-30 0 0 53c0 13-11 23-24 23l-211 0-42 60-161 0c-13 0-23-10-23-23l0-373 0 0c0-5 2-10 5-13 4-6 10-9 17-9l382 0c10 0 18 7 21 15l87 240 0 1c0 15-9 26-21 26z m-474 113c0 3 3 6 6 6l152 0 42-60 220 0c4 0 7-3 7-6l0-53-335 0c-2 0-3-1-4-1-8-1-15-7-17-15l-71-193z m391-374c0-3-2-4-4-4l-382 0c-2 0-3 1-4 2 0 1-1 2-1 3l87 239c1 2 2 3 5 3l382 0c3 0 4-4 4-7z"/>
<glyph glyph-name="microphone" unicode="&#57392;" d="M388 265c-4 0-8-4-8-9l0-53c0-68-56-124-124-124-68 0-124 56-124 124l0 53c0 5-4 9-8 9-5 0-9-4-9-9l0-53c0-75 58-136 132-141l0-44-44 0c-5 0-9-4-9-9 0-5 4-9 9-9l106 0c5 0 9 4 9 9 0 5-4 9-9 9l-44 0 0 44c74 5 132 66 132 141l0 53c0 5-4 9-9 9z m-132-159c54 0 97 43 97 97l0 212c0 53-43 97-97 97-54 0-97-44-97-97l0-212c0-54 43-97 97-97z m-79 309c0 44 35 79 79 79 44 0 79-35 79-79l0-212c0-44-35-79-79-79-44 0-79 35-79 79z"/>
<glyph glyph-name="save" unicode="&#57393;" d="M417 512l-412 0 0-512 502 0 0 422z m-46-21l0-146-251 0 0 146z m-272-470l0 198 303 0 0-198z m387 0l-63 0 0 219-345 0 0-219-52 0 0 470 73 0 0-167 293 0 0 167 16 0 78-77z m-345 146l73 0c6 0 11 5 11 11 0 5-5 10-11 10l-73 0c-6 0-10-5-10-10 0-6 4-11 10-11z m105-21l-105 0c-6 0-10-4-10-10 0-6 4-11 10-11l105 0c5 0 10 5 10 11 0 6-5 10-10 10z m23-3c-1-2-3-4-3-7 0-3 2-6 3-8 2-1 5-3 8-3 3 0 5 2 7 3 2 2 3 5 3 8 0 3-1 5-3 7-4 4-11 4-15 0z m81 327l-63 0 0-104 63 0z m-21-83l-21 0 0 62 21 0z"/>
<glyph glyph-name="video-player" unicode="&#57394;" d="M323 263l-98 62c-2 2-6 2-9 1-2-2-4-5-4-8l0-124c0-3 2-6 4-8 2 0 3-1 5-1 1 0 3 1 4 2l98 62c2 1 4 4 4 7 0 3-2 6-4 7z m-93-53l0 92 71-46z m273 249l-494 0c-5 0-9-4-9-9l0-388c0-5 4-9 9-9l494 0c5 0 9 4 9 9l0 388c0 5-4 9-9 9z m-415-194l-70 0 0 79 70 0z m-70-18l70 0 0-79-70 0z m88-88l0 282 300 0 0-370-300 0z m388 106l-70 0 0 79 70 0z m-70-18l70 0 0-79-70 0z m70 194l0-79-70 0 0 79z m-476 0l70 0 0-79-70 0z m0-370l0 79 70 0 0-79z m476 0l-70 0 0 79 70 0z"/>
<glyph glyph-name="image" unicode="&#57395;" d="M503 459l-494 0c-5 0-9-4-9-9l0-388c0-5 4-9 9-9l494 0c5 0 9 4 9 9l0 388c0 5-4 9-9 9z m-9-388l-476 0 0 370 476 0z m-353 193c27 0 49 22 49 49 0 27-22 49-49 49-27 0-49-22-49-49 0-27 22-49 49-49z m0 80c18 0 32-14 32-31 0-18-14-32-32-32-17 0-31 14-31 32 0 17 14 31 31 31z m-79-238c2 0 4 1 6 2l144 127 91-91c3-3 9-3 12 0 4 3 4 9 0 12l-42 43 81 89 99-91c4-4 9-4 13 0 3 4 3 9-1 13l-106 97c-2 1-4 2-6 2-3 0-5-1-6-3l-87-95-42 42c-3 4-8 4-12 1l-150-133c-4-3-4-8-1-12 2-2 4-3 7-3z"/>
<glyph glyph-name="heart-b" unicode="&#57396;" d="M511 352c-7 82-66 142-138 142-49 0-93-26-118-68-25 42-68 68-116 68-72 0-131-60-138-142-1-4-3-23 4-54 11-45 35-86 71-118l178-162 182 162c36 32 60 73 71 118 7 31 5 50 4 54z m-23-49c-10-41-33-79-65-109l-168-150-166 150c-32 30-55 68-65 109-7 29-4 46-4 46l0 1c7 72 57 124 119 124 47 0 87-28 106-74l10-21 9 21c19 45 61 74 109 74 62 0 112-52 119-125 0 0 3-17-4-46z m-330 131c-55 0-99-44-99-98 0-6 4-10 10-10 5 0 10 4 10 10 0 43 35 78 79 78 5 0 9 5 9 10 0 6-4 10-9 10z"/>
<glyph glyph-name="arrow-up" unicode="&#57397;" d="M274 389c-10 10-26 10-36 0l-230-229c-11-11-11-27 0-37 10-10 26-10 36 0l212 211 212-211c10-10 26-10 36 0 11 10 11 26 0 36z"/>
<glyph glyph-name="ticks" unicode="&#57398;" d="M364 386c1-1 3-3 0 0z m0 0c-7 7-17 7-23 0l-229-227-84 83c-7 7-17 7-23 0-7-6-7-16 0-22l96-95c6-6 16-6 23 0l240 239c6 6 6 16 0 22z m0 0c-4 4-2 2 0 0z m143 0c-3 4-1 2 0 0z m0 0c2-1 3-3 0 0z m0 0c-6 7-16 7-23 0l-228-227-21 19c-6 7-16 7-23 0-6-6-6-16 0-22l32-31c7-6 17-6 23 0l240 239c7 6 7 16 0 22z"/>
<glyph glyph-name="checked" unicode="&#57399;" d="M480 512l-448 0c-18 0-32-14-32-32l0-448c0-18 14-32 32-32l448 0c18 0 32 14 32 32l0 448c0 18-14 32-32 32z m0-480l-448 0 0 448 448 0z m-283 118c6-6 17-6 23 0l176 175c6 6 6 16 0 22-7 7-17 7-23 0l-165-163-68 67c-7 7-17 7-23 0-6-6-6-16 0-22z"/>
<glyph glyph-name="list" unicode="&#57400;" d="M192 400l304 0c9 0 16 7 16 16 0 9-7 16-16 16l-304 0c-9 0-16-7-16-16 0-9 7-16 16-16z m304-128l-304 0c-9 0-16-7-16-16 0-9 7-16 16-16l304 0c9 0 16 7 16 16 0 9-7 16-16 16z m0-160l-304 0c-9 0-16-7-16-16 0-9 7-16 16-16l304 0c9 0 16 7 16 16 0 9-7 16-16 16z m-432 368c-35 0-64-29-64-64 0-35 29-64 64-64 35 0 64 29 64 64 0 35-29 64-64 64z m0-96c-18 0-33 14-33 32 0 18 15 32 33 32 18 0 32-14 32-32 0-18-14-32-32-32z m0-64c-35 0-64-29-64-64 0-35 29-64 64-64 35 0 64 29 64 64 0 35-29 64-64 64z m0-96c-18 0-33 14-33 32 0 18 15 32 33 32 18 0 32-14 32-32 0-18-14-32-32-32z m0-64c-35 0-64-29-64-64 0-35 29-64 64-64 35 0 64 29 64 64 0 35-29 64-64 64z m0-96c-18 0-33 14-33 32 0 18 15 32 33 32 18 0 32-14 32-32 0-18-14-32-32-32z"/>
<glyph glyph-name="arrow-left-b" unicode="&#57401;" d="M496 270l-444 0 133 133c6 6 6 16 0 22-6 6-16 6-23 0l-157-158c-7-6-7-16 0-22l157-158c7-6 17-6 23 0 6 6 6 16 0 22l-133 129 444 0c9 0 16 8 16 16 0 9-7 16-16 16z"/>
<glyph glyph-name="arrow-up-b" unicode="&#57402;" d="M427 349l-160 158c-6 7-16 6-22 0l-160-158c-7-6-7-16 0-23 6-6 16-6 22 0l133 131 0-441c0-9 7-16 16-16 9 0 16 7 16 16l0 441 133-131c6-6 16-6 22 0 7 7 7 17 0 23z"/>
<glyph glyph-name="expand" unicode="&#57403;" d="M16 485l154-155 12 12-155 154 69 0 0 16-88 0-8-8 0-88 16 0z m80-485l0 16-69 0 155 154-12 12-154-155 0 69-16 0 0-88 8-8z m400 27l-154 155-12-12 155-154-69 0 0-16 88 0 8 8 0 88-16 0z m-80 485l0-16 69 0-155-154 12-12 154 155 0-69 16 0 0 88-8 8z"/>
<glyph glyph-name="minus" unicode="&#57404;" d="M0 270l512 0 0-28-512 0z"/>
<glyph glyph-name="logout" unicode="&#57405;" d="M240 32l-208 0 0 448 208 0c9 0 16 7 16 16 0 9-7 16-16 16l-224 0c-9 0-16-7-16-16l0-480c0-9 7-16 16-16l224 0c9 0 16 7 16 16 0 9-7 16-16 16z m267 235l-110 112c-6 6-16 6-23 0-6-6-6-16 0-23l84-84-330 0c-9 0-16-7-16-16 0-9 7-16 16-16l330 0-84-85c-6-6-6-16 0-23 7-6 17-6 23 0l110 112c7 7 7 17 0 23z"/>
<glyph glyph-name="tick" unicode="&#57406;" d="M506 430c-9 8-22 8-31 0l-304-303-134 132c-9 9-22 9-31 0-8-8-8-22 0-30l150-147c8-8 22-8 30 0l320 318c8 8 8 22 0 30-9 8 8-8 0 0z"/>
<glyph glyph-name="arrow-down" unicode="&#57407;" d="M468 389l-212-212-212 212c-10 11-26 11-36 0-11-10-11-26 0-36l230-230c10-11 26-11 36 0l230 230c11 10 11 26 0 36-10 10-26 10-36 0z"/>
<glyph glyph-name="arrow-left" unicode="&#57408;" d="M123 238l230-230c10-11 26-11 36 0 10 10 10 26 0 36l-212 212 212 212c10 10 10 26 0 36-10 11-26 11-36 0l-230-230c-10-10-10-26 0-36z"/>
<glyph glyph-name="arrow-right" unicode="&#57409;" d="M389 274l-230 230c-10 11-26 11-36 0-10-10-10-26 0-36l212-212-212-212c-10-10-10-26 0-36 10-11 26-11 36 0l230 230c10 10 10 26 0 36z"/>
<glyph glyph-name="twitter" unicode="&#57410;" d="M512 415c-19-9-39-14-60-17 21 13 38 34 46 58-20-12-43-20-67-25-19 20-46 33-77 33-58 0-105-47-105-105 0-8 1-16 3-24-87 4-165 46-216 110-9-16-15-34-15-53 0-36 19-69 47-87-17 0-33 5-47 13l0-2c0-50 36-93 84-103-9-2-18-3-28-3-7 0-13 0-20 2 14-42 53-72 98-73-35-28-81-45-130-45-8 0-17 0-25 1 46-30 102-47 161-47 193 0 299 160 299 299l-1 13c21 15 39 34 53 55z"/>
<glyph glyph-name="facebook" unicode="&#57411;" d="M188 413c0-13 0-71 0-71l-51 0 0-86 51 0 0-256 106 0 0 256 71 0c0 0 7 41 10 87-9 0-80 0-80 0 0 0 0 50 0 59 0 8 11 20 23 20 11 0 35 0 57 0 0 12 0 53 0 90-29 0-63 0-78 0-111 0-109-86-109-99z"/>
<glyph glyph-name="linkedin" unicode="&#57412;" d="M512 201l0-190-110 0 0 177c0 44-16 75-55 75-31 0-49-21-57-41-3-7-3-16-3-26l0-185-110 0c0 0 1 299 0 330l110 0 0-46c-1-1-1-1-1-1l1 0 0 1c14 22 40 54 99 54 72 0 126-47 126-148z m-450 300c-37 0-62-25-62-57 0-32 24-57 61-57l0 0c39 0 62 25 62 57 0 32-23 57-61 57z m-55-490l109 0 0 330-109 0z"/>
<glyph glyph-name="instagram" unicode="&#57413;" d="M371 512l-230 0c-78 0-141-63-141-141l0-230c0-78 63-141 141-141l230 0c78 0 141 63 141 141l0 230c0 78-63 141-141 141z m96-371c0-53-43-96-96-96l-230 0c-53 0-96 43-96 96l0 230c0 53 43 96 96 96l230 0c53 0 96-43 96-96l0-230z m-211 247c-73 0-132-59-132-132 0-73 59-132 132-132 73 0 132 59 132 132 0 73-59 132-132 132z m0-218c-48 0-87 38-87 86 0 48 39 86 87 86 48 0 87-38 87-86 0-48-39-86-87-86z m137 256c-8 0-17-3-23-9-6-6-10-15-10-24 0-9 4-17 10-23 6-7 15-10 23-10 9 0 18 3 24 10 6 6 10 14 10 23 0 9-4 18-10 24-6 6-15 9-24 9z"/>
<glyph glyph-name="telegram" unicode="&#57414;" d="M503 488c-9 11-22 17-36 17-9 0-19-2-28-7l-408-214c-29-15-31-38-31-48 1-9 5-31 35-43l53-21c9-4 21-6 32-6 2 0 4 0 6 0-1-1-2-1-2-2-10-15-10-35-2-56 0 0 1 0 1-1 15-34 32-72 34-78 6-13 19-22 33-22 22 0 28 10 64 69 3 4 9 14 11 27 4-2 8-3 11-5l58-23c11-5 22-9 27-11 2-1 3-2 5-3 4-2 9-2 13-2 26 0 33 22 36 34 2 7 4 15 6 24l89 324c6 24-2 40-7 47z m-278-394c0 0-32-53-35-53 0 0 0 0 0 0-4 9-36 80-36 80-6 15-5 27 6 27 2 0 4-1 8-2l25-13c4-3 8-5 13-7l2-1 2-1c19-10 26-14 15-30z m251 356l-88-324c-5-18-9-33-9-33 0 0 0 0 0 0 0 1-15 6-32 14l-58 23c-18 7-46 19-64 26l-3 1-11 5c-10 9-11 22-1 34l179 191c7 8 10 12 9 12-2 0-6-3-12-8l-227-179c-9-7-24-12-39-12-7 0-14 2-20 4l-52 21c-18 7-18 19-1 28l408 214c5 3 9 4 12 4 9 0 13-8 9-21z"/>
<glyph glyph-name="trophy" unicode="&#57415;" d="M319 416c-5 0-10-5-10-10l0-62c0-19-15-34-34-34-5 0-10-5-10-10 0-6 5-10 10-10 30 0 54 24 54 54l0 62c0 5-4 10-10 10z m114 52l-52 0 0 24c6 0 10 5 10 10 0 6-4 10-10 10l-252 0c-5 0-10-4-10-10 0-6 5-10 10-10l2 0 0-24-52 0c-23 0-42-17-42-39l0-30c0-49 42-89 95-93 7-39 40-70 81-73 3-15 5-30 5-45 0-14-2-28-5-41l-16 0c-11 0-20-9-20-20l0-70-9 0c-20 0-36-16-36-36l0-11c0-6 4-10 10-10l229 0c5 0 10 4 10 10l0 11c0 20-17 36-37 36l-9 0 0 70c0 11-9 20-20 20l-16 0c-4 13-5 27-6 41 0 15 2 30 6 45 41 3 74 34 81 73 53 4 95 44 95 93l0 30c0 22-19 39-42 39z m-118-341l0-70-59 0c-5 0-10-4-10-10 0-5 5-10 10-10l88 0c9 0 17-7 17-16l0-1-209 0 0 1c0 9 7 16 16 16l32 0c5 0 10 5 10 10 0 6-5 10-10 10l-3 0 0 70z m-81 105l44 0c-3-14-5-29-5-44 1-14 2-28 5-41l-44 0c2 13 4 27 4 41 0 15-1 30-4 44z m127 89c0-38-31-69-69-69l-72 0c-38 0-69 31-69 69 0 6-4 10-10 10-3 0-7-2-8-5-43 4-76 35-76 73l0 30c0 11 10 19 22 19l52 0 0-51c0-6 5-10 10-10 6 0 10 4 10 10l0 95 210 0z m94 78c0-37-32-68-74-72l0 121 52 0c12 0 22-8 22-19z m-304-42c0-6-5-10-10-10-6 0-10 4-10 10 0 5 4 10 10 10 5 0 10-5 10-10z m178 86c0-5-4-10-10-10-5 0-10 5-10 10 0 6 5 10 10 10 6 0 10-4 10-10z"/>
<glyph glyph-name="favorites" unicode="&#57416;" d="M472 310c9 9 13 23 9 35-4 12-15 21-28 23l-112 16c-2 0-4 2-5 4l-50 101c-5 12-17 19-30 19-13 0-25-7-30-19l-50-101c-1-2-3-4-5-4l-112-16c-13-2-24-11-28-23-4-12 0-26 9-35l81-79c1-1 2-4 2-6l-19-111c-3-13 3-26 13-33 11-8 24-9 36-3l100 53c2 1 4 1 6 0l100-53c5-3 11-4 16-4 7 0 14 2 20 7 10 7 16 20 13 33l-19 111c0 2 1 5 2 6z m-109-89l19-112c0-4-2-6-3-6-1-1-4-3-7-1l-100 53c-5 2-11 4-16 4-5 0-11-2-16-4l-100-53c-3-2-6 0-7 1-1 0-3 2-3 6l19 112c2 11-1 22-9 30l-81 79c-3 2-2 5-2 7 0 1 2 4 5 4l112 16c11 2 21 9 26 19l50 101c2 4 5 4 6 4 1 0 4 0 6-4l50-101c5-10 15-17 26-19l112-16c3 0 5-3 5-4 0-2 1-5-2-7l-81-79c-8-8-11-19-9-30z m51 268c-6 5-15 3-19-3l-14-19c-5-6-3-15 3-19 2-2 5-3 7-3 5 0 9 2 11 6l15 20c4 6 3 14-3 18z m-283-22l-14 19c-4 6-13 8-19 3-6-4-7-12-3-18l15-20c2-4 6-6 10-6 3 0 6 1 8 3 6 4 8 13 3 19z m-81-262c-3 7-10 11-17 9l-24-8c-7-2-11-10-8-17 2-5 7-9 13-9 1 0 2 0 4 1l23 7c7 2 11 10 9 17z m206-150c-7 0-13-6-13-13l0-25c0-7 6-13 13-13 7 0 14 6 14 13l0 25c0 7-7 13-14 13z m247 151l-24 8c-7 2-14-2-17-9-2-7 2-15 9-17l23-7c2-1 3-1 4-1 6 0 11 4 13 9 3 7-1 15-8 17z"/>
<glyph glyph-name="shopping-cart" unicode="&#57417;" d="M215 109c-25 0-45-20-45-45 0-25 20-45 45-45 25 0 45 20 45 45 0 25-20 45-45 45z m0-65c-11 0-20 9-20 20 0 11 9 20 20 20 11 0 20-9 20-20 0-11-9-20-20-20z m158 65c-25 0-45-20-45-45 0-25 20-45 45-45 24 0 45 20 45 45 0 25-21 45-45 45z m0-65c-11 0-20 9-20 20 0 11 9 20 20 20 11 0 20-9 20-20 0-11-9-20-20-20z m11 302l-180 0c-7 0-13-5-13-12 0-7 6-13 13-13l180 0c7 0 12 6 12 13 0 7-5 12-12 12z m-10-65l-161 0c-7 0-12-6-12-13 0-7 5-12 12-12l161 0c7 0 12 5 12 12 0 7-5 13-12 13z m132 121c-4 6-12 10-19 10l-392 0-8 38c-1 8-7 15-14 18l-55 24c-7 3-14 0-17-7-3-6 0-13 7-16l55-24 61-295c2-12 12-21 24-21l301 0c7 0 13 6 13 13 0 7-6 13-13 13l-301 0-7 36 311 0c12 0 22 8 24 20l35 170c2 8 0 15-5 21z m-54-186l-316 0-36 170 387 0z"/>
<glyph glyph-name="knowledge" unicode="&#57418;" d="M479 330l0 59c0 1 0 1 0 1 0 0 0 0 0 0 0 4-3 7-6 9l-220 112c-3 1-6 1-9 0l-220-112c-3-2-5-5-5-9 0-3 2-7 5-9l99-50 0-31c0-3 1-6 3-8-8-8-16-17-22-27-51-80-28-187 52-238 28-18 60-27 93-27 29 0 58 7 85 23 5 2 6 8 3 13-2 5-8 7-13 4-24-13-50-20-75-20-1 0-1 0-2 0-2 6-2 15 5 21l46 43c7 7 10 19 5 28l-12 29c-1 3-3 5-5 8l-5 5c-1 1-1 3-1 4 0 1 0 3 2 4l22 16c2 1 4 1 6 0l11-7c9-5 21-4 29 3 13 11 18 27 15 43-4 16-15 29-31 33l-9 3c-2 0-3 2-4 3 0 0 0 2 0 3 4 6 5 13 2 19l-11 20c4 0 7 0 11 0 3 0 7 0 11 0 68-46 87-139 43-208-3-5-2-11 3-14 1-1 3-1 5-1 3 0 7 1 8 4 25 39 33 84 24 129-7 32-23 61-46 85 2 1 4 4 4 7l0 31 84 43 0-44c-9-4-15-12-15-22l0-60c0-5 4-10 10-10l29 0c6 0 10 5 10 10l0 60c0 10-6 18-14 22z m-330-255l10-24c0-1 0-1 0-2-64 47-82 137-38 205 1 3 3 5 5 8l-2-9c-2-10 1-20 9-27l14-11c2-3 3-6 1-9l-12-24c-4-9-4-19 1-27 5-8 13-12 23-12 3 0 5-3 5-4 1-1 2-3 1-6l-17-36c-3-7-3-15 0-22z m170 159l9-3c9-2 15-9 17-18 2-9-1-18-8-24-1-1-4-1-6 0l-12 6c-8 5-19 5-27-1l-22-16c-6-4-10-11-10-18-1-8 2-15 7-21l5-4c0-1 1-1 1-2l12-28c1-2 0-5-1-6l-46-43c-9-9-13-22-12-34-15 2-31 7-46 14 1 8 0 15-3 22l-10 25c-1 2-1 4 0 5l17 36c4 9 3 18-2 26-5 8-13 13-22 13-4 0-6 2-6 3-1 1-2 3 0 6l12 25c6 11 3 25-6 33l-14 12c-2 1-3 4-3 6l10 42c3 3 7 5 10 8 4 0 8 0 12 0 25 0 49-9 67-27 2-1 4-2 7-2 2 0 5 1 7 2 10 11 23 18 36 23l12-24c0 0-1-1-1-2-3-7-3-14 0-21 4-7 9-11 16-13z m56 120l0 37c0 4-3 8-7 9-2 1-38 12-84 17-5 1-10-3-11-9 0-5 4-10 9-11 33-3 60-10 73-14l0-69c-11 3-21 4-32 4-28 0-53-9-74-26-21 17-47 26-74 26-11 0-22-1-32-4l0 69c12 4 40 11 73 14 6 1 10 6 9 11 0 6-5 10-11 9-46-4-83-16-85-17-4-1-6-5-6-9l0-37-72 36 198 101 198-101z m98-96l-9 0 0 50c0 2 2 4 5 4 2 0 4-2 4-4l0-50z m-105-196c-4 4-10 4-14 0l-1 0c-4-4-4-10 0-14 2-2 5-3 7-3 3 0 5 1 7 3l0 0c4 4 5 10 1 14z m-119 357l0 0c-6 0-10-4-10-10 0-5 4-10 10-10l0 0c6 0 10 5 10 10 0 6-4 10-10 10z"/>
<glyph glyph-name="knowledge-b" unicode="&#57419;" d="M330 359c-2 2-5 3-7 3-3 0-5-1-7-3-2-2-3-4-3-7 0-3 1-5 3-7 2-2 4-3 7-3 2 0 5 1 7 3 2 2 3 4 3 7 0 3-1 5-3 7z m156-53c0 16-3 33-8 49-1 4-5 7-9 7l-108 0c-6 0-10-4-10-10 0-6 4-10 10-10l100 0c3-12 5-24 5-37 1-34-10-75-29-105-17-29-25-63-22-97l9-83-130 0 0 28c0 16-6 31-17 42-12 11-26 17-42 17 0 0-1 0-1 0-16 0-31 6-42 18-11 11-18 26-18 42l1 33c0 3-1 5-3 7-2 2-5 3-7 3l-35 0c11 25 27 70 27 93 0 13 1 26 5 39l122 0c6 0 10 4 10 10 0 6-4 10-10 10l-130 0c-4 0-8-3-9-7-6-17-8-35-8-52 0-22-22-79-31-99-1-3-1-6 1-9 1-3 5-5 8-5l40 0-1-23c0-21 9-41 24-56 15-16 35-24 56-24 0 0 1 0 1 0 10 0 20-4 27-11 8-8 12-18 12-28l0-38c0-6 4-10 10-10l151 0c3 0 6 1 8 3 1 2 2 5 2 8l-10 94c-3 29 4 59 19 85 21 33 33 77 32 116z m-84 206c-17 0-31-14-31-31 0-6 4-10 10-10 5 0 10 4 10 10 0 6 5 11 11 11 6 0 11-5 11-11 0-6-5-11-11-11-6 0-10-5-10-10l0-7c0-5 4-10 10-10 5 0 9 4 9 8 13 5 22 16 22 30 0 17-14 31-31 31z m7-82c-2 2-5 3-7 3-3 0-5-1-7-3-2-2-3-4-3-7 0-2 1-5 3-7 2-2 4-3 7-3 2 0 5 1 7 3 2 2 3 5 3 7 0 3-1 5-3 7z m-256 8c4 4 4 10 0 14l-57 57c-4 4-10 4-14 0l-29-29c-4-4-6-9-7-14-5-1-10-3-14-7l-29-29c-4-4-4-10 0-14l57-57c2-2 4-3 7-3 3 0 5 1 7 3l29 29c2 1 3 1 4 1 0 0 1 0 3-1 3-4 10-4 14 0 0 0 0 0 0 0 0 0 0 0 0 0 2 2 3 5 3 7 0 3-1 5-3 7-1 1-1 3-1 3 0 1 0 2 1 3z m-64-36l-22-22-43 43 22 22c2 1 3 1 3 1 1 0 2 0 4-1l40-40c-2-1-3-2-4-3z m21 21c-1-1-2-3-3-4l-40 40c-1 1-1 3-1 3 0 1 0 2 1 3l22 23 43-43z m248-10l-8 0 0 8c0 6-4 10-10 10-5 0-10-4-10-10l0-8-8 0c-5 0-10-4-10-10 0-5 5-10 10-10l8 0 0-8c0-5 5-10 10-10 6 0 10 5 10 10l0 8 8 0c6 0 10 5 10 10 0 6-4 10-10 10z m125 52c-16 0-29-13-29-29 0-16 13-29 29-29 16 0 29 13 29 29 0 16-13 29-29 29z m0-38c-5 0-9 4-9 9 0 5 4 9 9 9 5 0 9-4 9-9 0-5-4-9-9-9z m-175 84c-4 2-8 1-11-2l-17-17c-4-4-4-10-1-14 4-4 11-4 15 0l0 0 0-30c0-6 4-10 10-10 5 0 10 4 10 10l0 54c0 4-2 8-6 9z m-85-32c-28 0-51-23-51-51 0-28 23-51 51-51 28 0 51 23 51 51 0 28-23 51-51 51z m0-82c-17 0-31 14-31 31 0 17 14 31 31 31 17 0 31-14 31-31 0-17-14-31-31-31z m10 40l0 9c0 6-4 10-10 10-6 0-10-4-10-10l0-18c0-6 4-10 10-10l6 0c6 0 10 4 10 10 0 4-2 8-6 9z m205-131c0 5-5 9-10 9 0 0 0 0 0 0-6 0-10-4-10-10 0-22-5-47-17-73-2-5 1-11 6-13 1 0 2-1 4-1 3 0 7 3 9 6 12 28 18 56 18 82z m-38-99c-5 3-11 1-14-4l0 0c-3-5-1-11 4-14 1-1 3-1 5-1 3 0 6 2 8 5l0 0c3 5 2 11-3 14z"/>
<glyph glyph-name="teacher" unicode="&#57420;" d="M481 69c3 4 5 10 5 15l0 15c0 18-15 33-33 33-18 0-33-15-33-33l0-15c0-5 2-11 5-15-9-5-16-11-21-19-6 8-13 14-21 19 3 4 4 10 4 15l0 15c0 18-14 33-32 33-19 0-33-15-33-33l0-15c0-5 1-11 4-15-8-5-15-11-21-19-5 8-12 14-21 19 3 4 5 10 5 15l0 15c0 18-15 33-33 33-18 0-33-15-33-33l0-15c0-5 2-11 5-15-9-5-16-11-21-19-5 8-13 14-21 19 3 4 4 10 4 15l0 15c0 18-14 33-32 33-19 0-33-15-33-33l0-15c0-5 1-11 4-15-8-5-15-11-21-19-5 8-12 14-21 19 3 4 5 10 5 15l0 15c0 18-15 33-33 33-18 0-33-15-33-33l0-15c0-5 2-11 5-15-18-10-31-30-31-52l0-7c0-5 4-10 10-10l492 0c6 0 10 5 10 10l0 7c0 22-13 42-31 52z m-422 43c7 0 13-6 13-13l0-15c0-4-4-8-8-8l-10 0c-4 0-8 4-8 8l0 15 0 0c0 7 6 13 13 13z m-39-92c2 20 18 36 39 36l0 0c21 0 38-16 39-36z m125 79c0 7 5 13 13 13 7 0 12-6 12-13l0-15c0-4-3-8-8-8l-9 0c-5 0-8 4-8 8z m-27-79c2 20 19 36 39 36l1 0c20 0 37-16 39-36z m125 79c0 7 6 13 13 13 7 0 13-6 13-13l0-15c0-4-4-8-8-8l-10 0c-4 0-8 4-8 8z m-26-79c2 20 18 36 39 36l0 0c21 0 38-16 39-36z m137 92c8 0 13-6 13-13l0-15c0-4-3-8-8-8l-9 0c-5 0-8 4-8 8l0 15c0 7 5 13 12 13z m-39-92c2 20 19 36 39 36l1 0c20 0 37-16 39-36z m125 79c0 7 6 13 13 13 7 0 13-6 13-13l0-15c0-4-4-8-8-8l-10 0c-4 0-8 4-8 8z m-26-79c1 20 18 36 39 36l0 0c21 0 37-16 39-36z m67 183c3 4 5 10 5 15l0 15c0 18-15 33-33 33-18 0-33-15-33-33l0-15c0-5 2-11 5-15-9-5-16-11-21-19-6 8-13 14-21 19 3 4 4 10 4 15l0 15c0 18-14 33-32 33-19 0-33-15-33-33l0-15c0-5 1-11 4-15-8-5-15-11-21-19-5 8-12 14-21 19 3 4 5 10 5 15l0 15c0 18-15 33-33 33-18 0-33-15-33-33l0-15c0-5 2-11 5-15-9-5-16-11-21-19-5 8-13 14-21 19 3 4 4 10 4 15l0 15c0 18-14 33-32 33-19 0-33-15-33-33l0-15c0-5 1-11 4-15-8-5-15-11-21-19-5 8-12 14-21 19 3 4 5 10 5 15l0 15c0 18-15 33-33 33-18 0-33-15-33-33l0-15c0-5 2-11 5-15-18-10-31-30-31-52l0-7c0-6 4-10 10-10l492 0c6 0 10 4 10 10l0 7c0 22-13 42-31 52z m-422 43c7 0 13-6 13-13l0-15c0-4-4-8-8-8l-10 0c-4 0-8 4-8 8l0 15 0 0c0 7 6 13 13 13z m-39-92c2 20 18 36 39 36l0 0c21 0 38-16 39-36z m125 79c0 7 5 13 13 13 7 0 12-6 12-13l0-15c0-4-3-8-8-8l-9 0c-5 0-8 4-8 8z m-27-79c2 20 19 36 39 36l1 0c20 0 37-16 39-36z m125 79c0 7 6 13 13 13 7 0 13-6 13-13l0-15c0-4-4-8-8-8l-10 0c-4 0-8 4-8 8z m-26-79c2 20 18 36 39 36l0 0c21 0 38-16 39-36z m137 92c8 0 13-6 13-13l0-15c0-4-3-8-8-8l-9 0c-5 0-8 4-8 8l0 15c0 7 5 13 12 13z m-39-92c2 20 19 36 39 36l1 0c20 0 37-16 39-36z m125 79c0 7 6 13 13 13 7 0 13-6 13-13l0-15c0-4-4-8-8-8l-10 0c-4 0-8 4-8 8z m-26-79c1 20 18 36 39 36l0 0c21 0 37-16 39-36z m34 262c-6 0-10-5-10-10l0-1c0-5 4-10 10-10 5 0 10 5 10 10l0 1c0 5-5 10-10 10z m0-38c-6 0-10-4-10-10l0-48-182 0c-6 0-10-4-10-10 0-6 4-10 10-10l192 0c5 0 10 4 10 10l0 58c0 6-5 10-10 10z m0 134l-294 0c-6 0-10-5-10-10l0-2-40 0c-12 0-21-10-21-22l0-15c0-7 3-13 8-17l0-16c0-8 2-15 7-21l-16-5c-17-6-28-22-28-39l0-78c0-6 5-10 10-10l132 0c4 0 8 2 9 6l36 56c2 4 2 9-2 13l-2 1 19 24c4 5 3 11-1 14-5 4-11 3-14-1l-19-24c-4 3-10 3-13-1l-3-3 0 3c0 18-11 33-27 39l-15 5c4 6 7 13 7 21l0 15c8 6 14 16 14 27l0 20 253 0 0-51c0-6 4-10 10-10 5 0 10 4 10 10l0 61c0 5-5 10-10 10z m-276-127c8-3 14-11 14-20l0-23-3-3c-4-4-4-10 0-14 4-4 10-4 14 0l5 5c1 0 2 1 3 3l11 11 3-2-28-45-19 0 0 17c0 5-5 10-10 10-6 0-10-5-10-10l0-17-40 0 0 17c0 5-5 10-10 10-6 0-10-5-10-10l0-17-18 0 0 68c0 9 6 17 14 20l19 6 15-45c2-4 5-6 10-6 4 0 8 2 9 6l15 44z m-35 31l-12 0c-8 0-14 6-14 14l0 10 40 0 0-10c0-8-6-14-14-14z m0-20l-5-16-6 16 11 0c0 0 0 0 0 0z m28 76c0-6-5-12-12-12l-47 0c-2 0-3 1-3 3l0 15c0 1 0 2 1 2l46 0c5 0 10 1 15 3z m245-1l-194 0c-6 0-10-5-10-10 0-6 4-10 10-10l194 0c6 0 10 4 10 10 0 5-4 10-10 10z m0-49l-194 0c-6 0-10-5-10-10 0-6 4-10 10-10l194 0c6 0 10 4 10 10 0 5-4 10-10 10z m0-49l-76 0c-5 0-10-5-10-10 0-6 5-10 10-10l76 0c6 0 10 4 10 10 0 5-4 10-10 10z m-108 0l-1 0c-6 0-10-5-10-10 0-6 4-10 10-10l1 0c5 0 10 4 10 10 0 5-5 10-10 10z"/>
<glyph glyph-name="locked" unicode="&#57422;" d="M256 235c-28 0-51-22-51-50 0-14 6-28 16-37l0-46c0-20 16-35 35-35 19 0 35 15 35 35l0 46c10 9 16 23 16 37 0 28-23 50-51 50z m18-70c-5-4-8-11-8-17l0-46c0-6-4-11-10-11-6 0-10 5-10 11l0 46c0 6-3 13-8 17-5 5-8 12-8 20 0 14 12 26 26 26 14 0 26-12 26-26 0-8-3-15-8-20z m131 137l-37 0 0 98c0 62-50 112-112 112-62 0-112-50-112-112l0-98-37 0c-20 0-37-16-37-37l0-228c0-20 17-37 37-37l298 0c20 0 37 17 37 37l0 228c0 21-17 37-37 37z m-236 98c0 48 39 87 87 87 48 0 87-39 87-87l0-98-174 0z m248-363c0-7-5-12-12-12l-298 0c-7 0-12 5-12 12l0 228c0 7 5 13 12 13l298 0c7 0 12-6 12-13z"/>
<glyph glyph-name="key-b" unicode="&#57423;" d="M192 272c-8 46-48 81-95 81-54 0-97-44-97-97 0-53 43-97 97-97 47 0 87 35 95 81l223 0 0-65 33 0 0 65 32 0 0-81 32 0 0 113z m-95-82c-37 0-67 29-67 66 0 37 30 66 67 66 36 0 66-29 66-66 0-37-30-66-66-66z"/>
<glyph glyph-name="bin-o" unicode="&#57424;" d="M423 452l-68 0 0 44c0 9-7 16-16 16-1 0-2 0-2-1 0 1-1 1-1 1l-163 0c-9 0-16-7-16-16l0-44-68 0c-20 0-35-16-35-35l0-57 30 0 0-325c0-20 15-35 35-35l274 0c20 0 35 15 35 35l0 325 30 0 0 57c0 19-15 35-35 35z m-234 28l134 0 0-28-134 0z m207-445c0-2-1-3-3-3l-274 0c-2 0-3 1-3 3l0 325 280 0z m30 356l-340 0 0 26c0 2 1 3 3 3l334 0c2 0 3-1 3-3z m-112-69l32 0 0-262-32 0z m-74 0l32 0 0-262-32 0z m-74 0l32 0 0-262-32 0z"/>
<glyph glyph-name="close" unicode="&#57425;" d="M512 482l-30 29-226-225-226 225-30-29 226-226-226-226 30-29 226 225 226-225 30 29-226 226z"/>
<glyph glyph-name="location" unicode="&#57426;" d="M256 512l0 0c-89 0-161-72-161-160 0-58 27-135 79-228 38-68 77-121 78-122 1-1 3-2 4-2 0 0 1 0 1 0 1 0 3 1 4 3 1 0 39 59 78 131 51 96 78 170 78 218 0 88-72 160-161 160z m74-164c0-41-33-75-74-75-41 0-74 34-74 75 0 41 33 74 74 74 41 0 74-33 74-74z"/>
<glyph glyph-name="user" unicode="&#57427;" d="M416 160l-32 0c-35 0-64 29-64 64l0 21c14 16 24 36 31 57 0 4 4 6 6 8 12 12 15 33 5 48-1 2-3 4-3 7 0 18 0 37 0 56 0 23-7 46-23 63-13 13-30 22-48 25-23 4-47 4-70-2-20-5-38-16-50-33-10-15-14-33-15-51 0-19 0-38 0-57 0-4-3-7-4-10-9-16-5-37 9-48 3-3 4-7 5-11 6-19 16-37 29-52l0-21c0-35-29-64-64-64l-32 0c0 0-58-16-96-96l0-32c0-18 14-32 32-32l448 0c18 0 32 14 32 32l0 32c-38 80-96 96-96 96z"/>
<glyph glyph-name="bin" unicode="&#57428;" d="M110 25c1-14 12-25 26-25l240 0c14 0 25 11 26 25l17 362-326 0z m200 272c0 6 5 11 11 11l17 0c5 0 10-5 10-11l0-207c0-6-5-10-10-10l-17 0c-6 0-11 4-11 10z m-73 0c0 6 5 11 11 11l16 0c6 0 11-5 11-11l0-207c0-6-5-10-11-10l-16 0c-6 0-11 4-11 10z m-73 0c0 6 5 11 10 11l17 0c6 0 11-5 11-11l0-207c0-6-5-10-11-10l-17 0c-5 0-10 4-10 10z m267 189l-111 0 0 21c0 3-3 5-6 5l-116 0c-3 0-6-2-6-5l0-21-111 0c-9 0-16-8-16-17l0-50 382 0 0 50c0 9-7 17-16 17z"/>
<glyph glyph-name="aparat" unicode="&#57430;" d="M346 3c-7 1-53 14-53 14 0 1 4 2 9 3 45 9 87 30 119 61 8 7 17 17 22 23 4 5 5 6 5 4 0-1-14-51-16-56-9-24-31-42-58-48-6-2-21-2-28-1z m-102 34c-57 4-106 26-145 65-36 35-57 78-63 129-1 9-1 41 0 49 6 51 27 95 63 130 35 36 81 58 132 64 13 1 37 1 50 0 51-6 97-28 132-64 36-35 57-79 63-130 1-8 1-40 0-49-4-32-13-60-29-86-36-60-97-99-166-107-9-1-30-2-37-1z m83 58c22 2 40 16 50 35 11 22 8 48-8 67-8 10-21 19-34 22-5 1-7 2-15 2-8 0-11 0-15-2-15-3-28-12-37-23-4-6-9-16-10-23-2-5-2-7-2-15 0-9 0-11 2-16 7-28 32-47 61-48 1 0 4 0 8 1z m-151 32c12 3 22 9 31 18 11 11 16 24 17 40 2 43-40 76-82 64-3-1-7-3-10-4-14-7-26-20-32-35-3-9-4-14-3-24 0-11 1-16 6-26 9-18 25-31 47-35 7-1 19 0 26 2z m85 100c10 2 20 11 22 21 4 18-10 35-28 35-16 0-29-13-29-29 0-12 9-24 21-27 4-1 11-1 14 0z m104 35c11 2 22 8 31 16 9 8 14 17 18 29 1 5 1 6 1 16 0 14-1 18-6 29-8 16-23 29-41 33-6 2-8 2-16 2-9 0-11 0-16-2-28-7-48-32-48-61 0-21 11-41 27-52 9-6 20-10 30-11 5-1 14 0 20 1z m-157 31c34 9 55 43 46 77-6 26-28 44-56 47-25 3-51-12-63-35-11-22-8-48 8-67 9-12 25-21 41-23 6-2 18-1 24 1z m-129-220c-30 8-34 9-44 16-25 17-39 47-34 76 1 6 12 49 13 50 0 0 1-1 2-8 11-51 39-99 79-133 6-5 8-7 7-7-1 0-11 3-23 6z m415 224c-7 42-27 83-55 116-7 7-21 21-29 27-5 5-6 6-5 6 1 0 51-13 54-14 11-4 21-11 29-18 18-18 27-43 23-68-1-7-14-57-15-57-1-1-1 3-2 8z m-428 113c0 2 12 44 13 49 7 18 21 33 38 42 15 7 32 10 48 8 6-1 52-13 53-14 1-1 1-1-9-3-41-7-80-25-112-53-7-6-20-18-26-25-4-5-5-5-5-4z"/>
<glyph glyph-name="rss" unicode="&#57431;" d="M49 512c42 0 83-6 123-17 39-11 76-26 110-46 35-20 66-45 94-73 28-28 53-59 73-94 20-34 35-71 46-110 11-40 17-81 17-123 0-14-5-25-14-35-10-9-21-14-35-14-13 0-25 5-34 14-10 10-14 21-14 35 0 33-5 66-14 97-8 31-21 60-37 87-15 27-35 52-57 74-22 22-47 42-74 57-27 16-56 29-87 37-31 9-64 14-97 14-14 0-25 4-35 14-9 9-14 21-14 34 0 14 5 25 14 35 10 9 21 14 35 14z m0-184c38 0 74-8 108-22 34-15 63-35 89-60 25-26 45-55 60-89 14-34 22-70 22-108 0-14-5-25-15-35-9-9-21-14-34-14-13 0-25 5-34 14-10 10-15 21-15 35 0 25-5 48-14 70-10 22-23 42-39 58-16 16-36 29-58 39-22 9-45 14-70 14-14 0-25 5-35 15-9 9-14 21-14 34 0 13 5 25 14 34 10 10 21 15 35 15z m89-256c0-10-1-19-5-27-4-8-8-16-15-22-6-6-13-11-21-14-9-4-18-6-27-6-10 0-19 2-27 6-8 3-15 8-21 14-7 6-11 14-15 22-4 8-5 17-5 27 0 9 1 18 5 26 4 9 8 16 15 22 6 6 13 11 21 15 8 3 17 5 27 5 9 0 18-2 27-5 8-4 15-9 21-15 7-6 11-13 15-22 4-8 5-17 5-26z"/>
<glyph glyph-name="spinner-circle" unicode="&#57432;" d="M512 248c-1 34-8 69-22 100-14 32-34 60-59 84-24 23-53 42-85 54-31 13-65 18-98 18-34-1-67-8-97-22-31-13-59-32-81-56-23-24-41-52-53-83-12-30-18-63-17-95 1-32 8-65 21-94 13-30 31-56 54-78 24-22 51-40 80-51 30-12 61-17 93-16 31 0 62 7 90 20 29 12 55 30 76 53 21 22 38 48 49 77 7 17 11 35 14 53 0 0 1 0 2 0 18 0 33 15 33 33 0 1 0 2 0 3z m-53-88c-12-27-29-52-51-73-21-20-47-36-74-47-28-11-57-16-86-15-30 1-58 7-85 19-26 12-50 28-70 49-20 21-35 46-46 72-10 26-15 55-14 83 1 28 7 56 18 81 12 26 28 49 48 68 20 19 43 34 69 43 25 10 53 15 80 14 27 0 53-6 78-17 24-11 46-27 65-46 18-19 32-42 42-67 9-24 13-50 13-76l0 0c0-1 0-2 0-3 0-17 13-31 29-33-3-18-8-35-16-52z"/>
<glyph glyph-name="spinner" unicode="&#57433;" d="M413 413c41-39 67-96 67-157 0-125-99-224-224-224-125 0-224 99-224 224 0 61 26 118 67 157l-25 25c-45-48-74-112-74-182 0-141 115-256 256-256 141 0 256 115 256 256 0 70-29 134-74 182z"/>
<glyph glyph-name="spinner-of-dots" unicode="&#57434;" d="M123 149c-13 0-24-5-33-14-9-9-13-20-13-32 0-13 4-24 13-33 9-9 20-14 33-14 12 0 23 5 32 14 9 9 14 20 14 33 0 12-5 23-14 32-9 9-20 14-32 14z m-10 97c0 14-5 26-15 36-10 10-23 15-37 15-14 0-26-5-36-15-10-10-15-22-15-36 0-14 5-26 15-36 10-10 22-15 36-15 14 0 27 5 37 15 10 10 15 22 15 36z m296 118c7 0 14 2 19 7 5 5 7 11 7 18 0 7-2 13-7 18-5 5-12 8-19 8-7 0-13-3-18-8-5-5-7-11-7-18 0-7 2-13 7-18 5-5 11-7 18-7z m-286 81c-16 0-29-5-40-16-11-11-16-24-16-40 0-15 5-29 16-40 11-11 24-16 40-16 15 0 29 5 40 16 11 11 16 25 16 40 0 16-5 29-16 40-11 11-25 16-40 16z m370-177c-6 6-14 9-22 9-9 0-16-3-22-9-6-6-9-14-9-22 0-9 3-16 9-22 6-6 13-9 22-9 8 0 16 3 22 9 6 6 9 13 9 22 0 8-3 16-9 22z m-84-130c-9 0-18-3-25-10-7-7-10-16-10-25 0-10 3-19 10-26 7-7 16-10 25-10 10 0 19 3 26 10 7 7 10 16 10 26 0 9-3 18-10 25-7 7-16 10-26 10z m-143-56c-11 0-21-4-29-12-8-8-12-18-12-29 0-11 4-21 12-29 8-8 18-12 29-12 11 0 21 4 29 12 8 8 12 18 12 29 0 11-4 21-12 29-8 8-18 12-29 12z m0 430c-17 0-31-6-43-18-12-12-18-26-18-43 0-17 6-32 18-44 12-12 26-18 43-18 17 0 32 6 44 18 12 12 18 27 18 44 0 17-6 31-18 43-12 12-27 18-44 18z"/>
<glyph glyph-name="clock-o" unicode="&#57435;" d="M256 512c-141 0-256-115-256-256 0-141 115-256 256-256 141 0 256 115 256 256 0 141-115 256-256 256z m0-480c-123 0-224 101-224 224 0 123 101 224 224 224 123 0 224-101 224-224 0-123-101-224-224-224z m16 383l-32 0 1-176 110-94 20 27-99 84z"/>
<glyph glyph-name="circle-o" unicode="&#57436;" d="M256 512c-141 0-256-115-256-256 0-141 115-256 256-256 141 0 256 115 256 256 0 141-115 256-256 256z m0-480c-124 0-225 100-225 224 0 123 101 224 225 224 124 0 224-101 224-224 0-124-100-224-224-224z"/>
<glyph glyph-name="square-o" unicode="&#57437;" d="M0 512l0-512 512 0 0 512z m480-480l-448 0 0 448 448 0 0-448z"/>
<glyph glyph-name="play" unicode="&#57438;" d="M0 512l0-512 512 256z m32-48l415-208-415-208z"/>
<glyph glyph-name="check" unicode="&#57439;" d="M448 152c-7 6-18 11-33 15l0 50c3-1 6-2 8-4 5-3 8-8 8-15 0-5 1-8 4-11 5-5 14-4 18 0 3 3 4 6 4 11 0 13-5 23-14 32-7 6-17 10-28 12l0 6c0 7-5 12-12 12-7 0-12-5-12-12l0-6c-11-1-21-6-29-12-10-9-16-21-16-36 0-12 5-23 14-31 7-6 18-11 31-14l0-54c-6 1-11 3-14 6-6 5-9 13-9 24 0 4-1 7-3 10-5 5-14 4-18 0-3-3-4-6-4-10 0-20 6-34 18-44 7-5 17-9 30-11l0-10c0-7 5-12 12-12 7 0 12 5 12 12l0 10c12 2 22 6 31 14 10 9 16 21 16 36 0 13-5 24-14 32z m-57 22c-6 2-10 5-13 8-4 3-5 8-5 14 0 7 2 12 8 16 3 2 6 4 10 5z m36-73c-4-3-8-5-12-6l0 47 0 0c9-3 13-6 15-7 4-4 6-9 6-17 0-7-3-13-9-17z m-376-24l282 0 0-26-282 0z m292 230l110 110c10 10 10 26 0 36l-51 52c-5 4-11 7-18 7-7 0-13-3-18-8l-197-197-169 0 0-307 512 0 0 307z m41 179l51-51-247-247-51 51z m-217-313l-90-45 45 90z m319-147l-460 0 0 256 117 0-33-34c-2-1-4-4-5-6l-51-103c-5-9-3-21 5-29 5-5 11-8 18-8l179 0 0 26-122 0 57 28c2 2 4 3 6 5l121 121 168 0z m-213 316l102 102 18-18-102-102z"/>
<glyph glyph-name="chat" unicode="&#57440;" d="M372 461l-343 0c-16 0-29-13-29-29l0-206c0-16 13-28 29-28l22 0 0-77c0-5 3-9 8-11 1-1 3-1 4-1 3 0 6 1 9 3l85 86 17 0c7 0 12 5 12 12 0 6-5 12-12 12 0 0-23 0-23 0-3-1-5-2-8-4l-68-68c0 0 0 60 0 61 0 6-6 11-12 11l-34 0c-3 0-5 2-5 4l0 206c0 3 2 5 5 5l343 0c3 0 5-2 5-5l0-79c0-6 5-12 12-12 7 0 12 6 12 12l0 79c0 16-13 29-29 29z m111-147l-240 0c-16 0-29-13-29-29l0-141c0-16 13-29 29-29l150 0 61-61c3-2 6-3 9-3 1 0 3 0 4 1 5 2 8 6 8 11l0 52 8 0c16 0 29 13 29 29l0 141c0 16-13 29-29 29z m5-170c0-2-2-5-5-5l-20 0c-7 0-12-4-12-11 0 0 0-36 0-36l-44 44c0 0 0 0 0 0 0 0-1 0-1 0-2 2-5 3-8 3l-155 0c-3 0-5 3-5 5l0 141c0 2 2 4 5 4l240 0c3 0 5-2 5-4z m-125 82c-7 0-12-5-12-12 0-6 5-12 12-12 7 0 12 6 12 12 0 7-5 12-12 12z m-53 155c0 0-219 0-219 0-7 0-12-5-12-12 0-6 5-12 12-12l219 0c7 0 13 6 13 12 0 7-6 12-13 12z m-136-79l-83 0c-7 0-12-6-12-13 0-6 5-12 12-12l83 0c7 0 12 6 12 12 0 7-5 13-12 13z m133-76c-7 0-12-5-12-12 0-6 5-12 12-12 7 0 12 6 12 12 0 7-5 12-12 12z m112 0c-7 0-12-5-12-12 0-6 5-12 12-12 7 0 12 6 12 12 0 7-5 12-12 12z"/>
<glyph glyph-name="pinterest" unicode="&#57441;" d="M267 512c-139 0-209-100-209-183 0-51 19-95 60-112 6-3 12 0 14 7 2 5 5 18 6 24 2 7 2 10-4 16-12 14-19 32-19 58 0 74 55 140 144 140 79 0 122-48 122-112 0-85-37-156-93-156-31 0-54 25-46 56 9 37 26 77 26 104 0 24-13 44-40 44-31 0-56-32-56-76 0-27 9-46 9-46 0 0-32-136-38-160-11-47-1-105-1-111 1-4 5-4 7-2 3 4 41 50 53 96 4 13 21 81 21 81 10-20 40-37 72-37 94 0 158 86 158 201 0 87-74 168-186 168z"/>
<glyph glyph-name="grid" unicode="&#57442;" d="M178 512l-131 0c-26 0-47-21-47-47l0-131c0-25 21-46 47-46l131 0c25 0 46 21 46 46l0 131c0 26-21 47-46 47z m5-178c0-3-2-5-5-5l-131 0c-3 0-6 2-6 5l0 131c0 3 3 6 6 6l131 0c3 0 5-3 5-6z m282 178l-131 0c-25 0-46-21-46-47l0-131c0-25 21-46 46-46l131 0c26 0 47 21 47 46l0 131c0 26-21 47-47 47z m6-178c0-3-3-5-6-5l-131 0c-3 0-5 2-5 5l0 131c0 3 2 6 5 6l131 0c3 0 6-3 6-6z m-6-110l-131 0c-25 0-46-21-46-46l0-131c0-26 21-47 46-47l131 0c26 0 47 21 47 47l0 131c0 25-21 46-47 46z m6-177c0-3-3-6-6-6l-131 0c-3 0-5 3-5 6l0 131c0 3 2 5 5 5l131 0c3 0 6-2 6-5z m-293 177l-131 0c-26 0-47-21-47-46l0-131c0-26 21-47 47-47l131 0c25 0 46 21 46 47l0 131c0 25-21 46-46 46z m5-177c0-3-2-6-5-6l-131 0c-3 0-6 3-6 6l0 131c0 3 3 5 6 5l131 0c3 0 5-2 5-5z"/>
<glyph glyph-name="support" unicode="&#57443;" d="M488 68l0-68-464 0 0 68c0 32 28 72 62 88l75 36 52-109 27 72c5-1 10-2 16-2 6 0 11 1 16 2l25-69 52 107 78-37c33-16 61-56 61-88z m-396 239l0 49c0 8 5 16 11 20 9 76 74 136 153 136 79 0 144-60 153-136 6-4 11-12 11-20l0-49c0-13-11-24-24-24-13 0-24 11-24 24l0 10c-12-64-60-124-116-124-56 0-103 60-116 124l0-10c0-11-7-20-17-23 9-32 30-59 59-78 6 2 12 2 19-2 10-5 16-16 12-23-4-8-16-9-27-4-7 4-12 11-13 17-33 21-56 54-66 91-8 3-15 12-15 22z m27 74c1 0 2 0 2 0 2-1 3-2 4-3 5-2 10-6 12-11 7 65 58 100 119 100 61 0 112-35 119-100 3 6 10 11 18 12-10 67-68 118-137 118-69 0-126-50-137-116z"/>
<glyph glyph-name="percent" unicode="&#57444;" d="M4 23l485 485 19-19-485-485z m77 327c44 0 81 37 81 81 0 45-37 81-81 81-45 0-81-36-81-81 0-44 36-81 81-81z m0 135c30 0 54-24 54-54 0-30-24-54-54-54-30 0-54 24-54 54 0 30 24 54 54 54z m350-323c-44 0-81-37-81-81 0-45 37-81 81-81 45 0 81 36 81 81 0 44-36 81-81 81z m0-135c-30 0-54 24-54 54 0 30 24 54 54 54 30 0 54-24 54-54 0-30-24-54-54-54z"/>
<glyph glyph-name="earth" unicode="&#57445;" d="M370 399l1-4-6-1-1-8 7 0 9 1 5 5-5 2-3 3-4 7-2 9-8-1-2-3 0-4 4-3z m-6-3l0 5-4 2-7-2-4-7 0-5 5 0z m-129-21l-2-4-6 0 0-3 1 0c0 0 0-1 0-2l5 0 2 2 1 3 3 0 1 3-3 1z m-18-7l0-3 5 0 1 4-3 2z m291-107c0 7 0 14-1 22-2 24-8 47-17 69-1 1-1 3-2 5-11 27-28 52-48 73-1 2-2 3-3 4-4 4-8 8-12 12-45 41-105 66-171 66-66 0-127-26-172-67-11-10-20-21-29-32-33-43-53-97-53-155 0-140 114-254 254-254 99 0 184 56 226 139 9 17 16 36 21 55 1 5 2 10 3 16 3 14 4 29 4 44 0 1 0 2 0 3z m-48 101l2 2c2-4 3-8 5-12l-2 0-5 0z m-37 44l1 12c4-4 7-9 11-13l-5-7-16 0-1 3z m-306 29l0 0 5 0 1 2 8 0 0-4-2-3-12 0z m8-12c0 0 5 1 6 1 0 0 0-5 0-5l-12-1-2 3z m351-101l-18 0-12 9-11-1 0-8-4 0-4 3-21 6 0 13-26-2-8-4-11 0-5 0-12-7 0-13-26-19 2-8 5 0-1-7-4-2 0-19 22-26 10 0 1 2 17 0 5 5 10 0 5-6 15-1-2-20 16-29-8-16 0-8 7-7 0-19 9-11 0-16 8 0c-43-53-108-86-181-86-129 0-233 104-233 233 0 32 7 63 19 91l0 7 8 11c3 5 6 10 9 16l1-5-10-11c-3-6-6-12-8-18l0-13 9-5 0-18 9-16 8-1 1 5-9 14-2 13 6 0 2-13 13-19-4-6 9-13 20-5 0 3 8-1-1-5 7-2 10-2 13-16 18-2 2-14-12-9-1-13-1-8 17-22 2-7c0 0 6-2 7-2 0 0 14-10 14-10l0-40 5-1-3-19 8-11-2-18 11-19 14-12 14 0 1 4-10 9 0 4 2 5 1 6-7 0-4 4 6 6 1 4-7 2 1 4 9 1 14 7 4 8 15 19-3 14 4 8 13 0 9 7 3 28 10 12 2 9-9 3-6 9-21 1-16 6-1 11-5 10-15 0-8 13-8 4 0-4-14-1-5 7-14 3-12-13-19 3-1 21-14 2 6 10-2 6-18-12-11 2-4 8 3 9 6 12 14 7 27 0 0-8 10-5-1 14 8 8 14 9 1 7 14 15 16 8-2 1 11 10 3-1 2-2 4 4 1 0-4 1-5 2 0 4 3 2 5 0 2-1 2-5 2 1 0 0 1 0 7 1 1 4 4-1 0-4-3-3 0 0 0-4 13-4c0 0 0 0 0 0l3 0 0 6-10 4-1 3 9 3 0 8-9 6 0 13-12-6-5 0 1 11-16 4-7-6 0-15-12-4-5-11-6 0 0 13-11 1-6 4-3 9 21 12 10 3 1-7 6 0 1 4 5 1 1 1-3 1-1 4 8 0 4 5 0 0 0 0 2 1 15 2 7-5-18-10 23-5 3 7 9 0 4 7-7 2 0 8-22 10-15-2-9-4 1-11-9 1-1 6 8 8-15 1-5-2-2-5 6-1-1-6-10 0-1-4-15-1c0 0 0 9-1 9 0 0 12 0 12 0l8 8-5 2-6-6-10 1-6 8-13 0-14-10 12 0 2-3-4-4 14 0 2-5-15 1-1 4-10 2-5 3-12-1c39 29 86 45 137 45 59 0 113-22 154-58l-3-5-11-4-4-5 1-6 5-1 4-8 9 4 2-11-3 0-8 1-8-2-9-12-12-2-2-10 5-1-1-7-12 3-11-3-2-6 2-13 6-3 11 0 7 1 2 6 12 15 7-2 8 7 1-5 18-13-2-3-8 1 3-5 5-1 6 3 0 7 2 1-2 2-12 7-3 9 10 0 3-3 9-8 0-9 9-9 4 13 6 3 1-10 6-7 12 0c3-6 5-12 7-18z m-337 75l6 2 5-1-2-7-6-2z m32-18l0-5-14 0-5 2 1 3 7 3 9 0 0-3z m6-7l0-4-3-2-4-1c0 0 0 7 0 7z m-4 2l0 6 5-4z m3-11l0-4-4-4-7 0 1 5 4 1 0 1z m-19 9l8 0-10-13-4 2 1 6z m32-7l0-5-8 0-2 3 0 4 1 0z m-7 6l2 2 4-2-3-2z m298-60l1 1c0-2 1-3 1-4z m-440 45l0-7c2 6 5 12 8 18z"/>
<glyph glyph-name="repeat" unicode="&#57446;" d="M149 363l214 0 0-64 85 85-85 85 0-64-256 0 0-128 42 0z m214-214l-214 0 0 64-85-85 85-85 0 64 256 0 0 128-42 0z"/>
<glyph glyph-name="whatsapp" unicode="&#57448;" d="M512 263c0-138-113-250-251-250-44 0-86 11-122 31l-139-44 45 134c-23 37-36 81-36 129 0 137 113 249 252 249 138 0 251-112 251-249z m-251 209c-117 0-212-94-212-209 0-46 15-89 41-123l-27-78 81 26c34-22 74-35 117-35 116 0 211 94 211 210 0 115-95 209-211 209z m127-267c-2 3-6 4-12 7-6 3-37 18-42 20-6 2-10 3-14-3-4-6-16-20-20-24-3-4-7-4-13-1-6 3-26 9-50 30-18 16-30 36-34 42-3 6 0 10 3 13 3 2 6 7 9 10 3 4 4 7 6 11 2 4 1 7 0 10-2 3-14 33-19 46-5 12-11 10-14 10-4 0-8 0-12 0-4 0-11-1-16-7-6-6-22-21-22-51 0-30 22-59 25-63 3-4 43-68 105-93 63-24 63-16 74-15 12 1 37 15 42 29 5 14 5 27 4 29z"/>
<glyph glyph-name="iran" unicode="&#57449;" d="M10 482c-12-11-13-35-3-71 7-27 25-64 32-69 4-2 4-6 0-12-2-5-5-18-5-30 0-18 3-23 27-48 20-21 29-34 32-50 6-28 25-45 46-43 14 1 18-2 35-29 37-52 79-75 127-68 24 3 25 2 43-17 15-16 22-20 45-23 15-1 40-2 57-1l29 1 13 25c21 37 24 46 24 69 0 18-2 23-20 38l-19 16 10 21c11 22 7 42-10 48-8 2-10 8-11 26-1 13 1 31 4 40 10 33 13 59 7 74-6 13-13 18-84 55-40 21-80 17-128-14-9-6-23-12-31-14-29-7-74 20-80 48-8 39-32 49-62 28l-15-10-11 10c-14 13-39 13-52 0z m38-24c16-12 29-12 49 0 9 5 18 10 20 10 2 0 7-10 10-21 10-40 46-65 92-65 26 0 34 2 61 19 39 24 68 28 98 12 11-7 32-18 45-26 14-7 27-17 28-21 2-4-1-20-5-36-6-17-9-40-9-62 1-31 3-35 14-45 14-11 14-11 5-27-13-24-10-36 12-54 24-19 26-40 7-62-7-9-12-19-12-25 0-10-3-11-31-11-44 0-66 8-76 25-11 19-20 22-54 17-41-5-72 12-105 57-25 34-42 47-57 41-12-5-21 7-25 32-3 19-7 27-29 47-22 20-27 28-27 41 0 8 2 17 5 18 9 6 5 22-10 43-22 33-37 103-22 103 2 0 9-5 16-10z"/>
<glyph glyph-name="wifi" unicode="&#57450;" d="M256 162c-26 0-47-20-47-46 0-26 21-47 47-47 26 0 47 21 47 47 0 26-21 46-47 46z m251 164c-63 74-154 117-251 117-97 0-188-43-251-117-8-10-7-25 3-33 5-4 10-5 15-5 7 0 14 2 18 8 54 64 132 100 215 100 83 0 161-36 215-100 4-6 11-8 18-8 5 0 10 1 15 5 10 8 11 23 3 33z m-251 24c-69 0-134-31-179-84-8-10-7-25 3-33 4-4 10-6 15-6 7 0 13 3 18 9 36 42 88 67 143 67 55 0 107-25 143-67 5-6 11-9 18-9 5 0 11 2 15 6 10 8 11 23 3 33-45 53-110 84-179 84z m0-94c-41 0-81-18-107-50-9-10-7-25 2-33 5-4 10-6 16-6 6 0 13 3 17 9 18 21 44 33 72 33 28 0 54-12 72-33 4-6 11-9 17-9 6 0 11 2 15 6 10 8 12 23 3 33-26 32-66 50-107 50z"/>
<glyph glyph-name="gym" unicode="&#57451;" d="M504 302c-5 6-13 10-20 10l-12 0 0 10c0 16-15 30-33 30l-15 0 0 17c0 9-3 17-10 22-12 12-32 12-44 0-7-5-10-13-10-22l0-81-208 0 0 81c0 9-3 17-10 22-12 12-32 12-44 0-7-5-10-13-10-22l0-17-17 0c-8 0-16-3-22-8-6-5-9-13-9-21l0-11-12 0c-7 0-15-4-20-10-5-6-8-14-8-22l0-47c0-9 3-17 8-23 5-6 13-10 20-10l12 0 0-11c0-8 3-15 9-21 6-5 14-8 22-8l17 0 0-17c0-8 3-16 10-22 6-6 14-9 22-9 8 0 16 3 22 9 7 6 10 14 10 22l0 81 208 0 0-81c0-8 3-16 10-22 6-6 14-9 22-9 8 0 16 3 22 9 7 6 10 14 10 22l0 17 15 0c18 0 33 14 33 31l0 9 12 0c7 0 15 4 20 10 5 6 8 14 8 23l0 47c0 8-3 16-8 22z m-476-86c-3 0-6 2-8 4-2 4-4 8-4 13l0 47c0 4 2 9 4 12 2 3 5 4 8 4l12 0 0-80z m43-40c-4 0-8 2-11 4-3 3-4 6-4 9l0 134c0 4 1 7 4 9 3 3 7 4 11 4l17 0 0-160z m65-33c0-4-2-8-5-10-6-6-16-6-22 0-3 2-5 6-5 10l0 226c0 4 2 8 5 11 3 3 7 4 11 4 4 0 8-1 11-4 3-3 5-7 5-11z m16 97l0 32 208 0 0-32z m256-97c0-4-2-8-5-10-6-6-16-6-22 0-3 2-5 6-5 10l0 226c0 4 2 8 5 11 3 3 7 4 11 4 4 0 8-1 11-4 3-3 5-7 5-11z m48 48c0-8-7-15-17-15l-15 0 0 160 15 0c10 0 17-6 17-14z m40 42c0-5-2-9-4-13-2-2-5-4-8-4l-12 0 0 80 12 0c3 0 6-1 8-4 3-3 4-8 4-12z"/>
<glyph glyph-name="phone" unicode="&#57452;" d="M69 443c-4-5-5-9-5-30 0-85 41-180 105-244 65-64 159-105 245-105 35 0 34-1 34 59 0 61 3 58-51 62-10 1-24 4-31 6-27 8-30 7-60-22l-26-26-23 15c-32 19-80 67-99 99l-15 23 26 27 26 26-1 13c-1 7-3 21-6 31-2 11-4 25-4 32 0 18-5 33-11 36-2 2-25 3-51 3-44 0-48-1-53-5z m187-17l0-23 17-1c46-4 93-37 115-81 9-17 15-39 15-54l0-11 45 0 0 14c0 21-9 52-22 77-16 31-48 63-79 79-25 13-56 22-77 22l-14 0z m0-86l0-23 8 0c23 0 53-30 53-54l0-7 46 0-1 16c-4 44-46 86-90 90l-16 1z"/>
<glyph glyph-name="atom" unicode="&#57453;" d="M381 256c10 9 18 19 26 28 34 41 45 76 31 100-10 19-34 27-68 26-20-1-43-5-68-13-4 13-7 26-11 37-18 50-42 78-69 78-18 0-35-12-50-36-12-19-22-47-30-79-12 4-24 7-36 9-51 10-87 2-100-22-14-24-3-59 31-100 8-9 16-19 26-28-10-9-18-19-26-28-34-41-45-76-31-100 9-16 28-25 55-26 2 0 4 0 6 0 21 0 47 4 75 13 3-13 7-26 11-37 18-50 42-78 69-78 27 0 51 28 69 78 4 11 7 24 11 37 25-8 48-12 68-13 2 0 5 0 7 0 30 0 52 9 61 26 14 24 3 59-31 100-8 9-16 19-26 28z m43 120c10-17-1-47-29-82-8-9-16-18-26-27-16 15-34 30-54 44-2 25-5 48-10 70 60 18 107 17 119-5z m-202-212c-13 7-26 14-39 22-14 8-26 16-38 24-1 15-2 30-2 46 0 16 1 31 2 46 12 8 24 16 38 24 13 8 26 15 39 22 13-7 26-14 39-22 14-8 26-16 38-24 1-15 2-30 2-46 0-16-1-31-2-46-12-8-24-16-38-24-13-8-26-15-39-22z m-94 58c-15 11-29 22-42 34 13 12 27 23 42 34-1-11-1-23-1-34 0-11 0-23 1-34z m188 68c15-11 29-23 42-34-13-12-27-23-42-34 1 11 1 23 1 34 0 11 0 23-1 34z m-94 206c19 0 39-25 54-68 4-11 7-23 10-36-9-3-19-7-29-11-4-1-6-6-5-10 2-4 7-7 11-5 9 4 18 7 27 10 3-17 6-35 8-54-9 7-19 12-29 18-37 22-76 40-111 52 15 63 39 104 64 104z m-173-202c-28 35-39 65-30 82 10 17 41 22 84 14 31-6 65-17 101-34-10-5-20-10-29-16-10-6-20-11-29-17 1 10 3 20 4 30 1 5-2 9-7 10-4 0-8-3-9-7-2-15-4-30-5-45-20-14-38-29-54-44-10 9-18 18-26 27z m-30-158c-9 17 2 47 30 82 8 9 16 18 26 27 16-15 34-30 54-44 2-25 5-48 10-70-61-19-107-17-120 5z m257-52c-15-43-35-68-54-68-19 0-39 25-54 68-10 29-18 66-22 106 9-7 19-12 29-18 9-6 19-11 29-16-10-5-19-9-28-12-4-2-7-7-5-11 1-3 4-5 7-5 1 0 2 0 3 0 29 12 59 26 88 44 10 6 20 11 29 18-2-19-5-37-8-54-9 3-18 6-27 10-4 2-9-1-11-5-1-4 1-9 5-10 10-4 20-8 29-11-3-13-6-25-10-36z m148 52c-12-22-59-23-119-5 5 22 8 45 10 70 20 14 38 29 54 44 10-9 18-18 26-27 28-35 39-65 29-82z m-168 184c-29 0-53-29-53-64 0-35 24-64 53-64 29 0 53 29 53 64 0 35-24 64-53 64z m0-108c-20 0-36 20-36 44 0 24 16 44 36 44 20 0 36-20 36-44 0-24-16-44-36-44z"/>
<glyph glyph-name="two-way" unicode="&#57454;" d="M512 412c0 4-2 7-4 10l-45 39c-2 2-6 3-9 3l-185 0 0 34c0 8-6 13-13 13-8 0-14-5-14-13l0-126-184 0c-3 0-7-1-9-3l-45-40c-2-2-4-6-4-10 0-3 2-7 5-9l44-36c3-2 6-3 9-3l184 0 0-207c0-8 6-13 14-13 7 0 13 5 13 13l0 300 185 0c3 0 6 1 9 3l44 35c3 3 5 6 5 10z m-449-115l-29 23 29 26 179 0 0-49z m386 93l-179 0 0 49 179 0 29-26z"/>
<glyph glyph-name="menu" unicode="&#57455;" d="M491 277l-470 0c-12 0-21-10-21-21 0-11 9-21 21-21l470 0c12 0 21 10 21 21 0 11-9 21-21 21z m0 157l-470 0c-12 0-21-10-21-21 0-12 9-21 21-21l470 0c12 0 21 9 21 21 0 11-9 21-21 21z m0-314l-470 0c-12 0-21-9-21-21 0-11 9-21 21-21l470 0c12 0 21 10 21 21 0 12-9 21-21 21z"/>
<glyph glyph-name="more" unicode="&#57456;" d="M256 375c38 0 68 31 68 69 0 37-30 68-68 68-38 0-68-31-68-68 0-38 30-69 68-69z m0-238c-38 0-68-31-68-69 0-37 30-68 68-68 38 0 68 31 68 68 0 38-30 69-68 69z m0 187c-38 0-68-30-68-68 0-38 30-68 68-68 38 0 68 30 68 68 0 38-30 68-68 68z"/>
<glyph glyph-name="plus" unicode="&#57457;" d="M512 272l-240 0 0 240-32 0 0-240-240 0 0-32 240 0 0-240 32 0 0 240 240 0z"/>
<glyph glyph-name="map" unicode="&#57458;" d="M192 512l0 0 0 0 0 0-192-73 0-439 192 58 0-10 160-48 0 448-160 64 0 0z m-32-432l-128-42 0 378 128 48z m160 352l0-394-128 42 0 400z m32 16l0-32 128 48 0-384-128-48 0-32 160 64 0 448z"/>
<glyph glyph-name="tag" unicode="&#57459;" d="M302 377c-19-20-18-51 2-70 20-18 52-18 71 2 19 20 18 52-2 70-20 19-52 18-71-2z m55-51c-10-9-25-10-35-1-10 10-11 25-1 35 9 10 25 10 34 1 10-9 11-25 2-35z m115 158l-195 28-277-292 235-220 277 292z m-238-440l-189 176 243 257 155-23 34-153z"/>
<glyph glyph-name="emo-wink" unicode="&#57460;" d="M256 512c-141 0-256-115-256-256 0-141 115-256 256-256 141 0 256 115 256 256 0 141-115 256-256 256z m0-495c-132 0-239 107-239 239 0 132 107 239 239 239 132 0 239-107 239-239 0-132-107-239-239-239z m-51 316c0 23-19 42-43 42-24 0-43-19-43-42 0-24 19-43 43-43 24 0 43 19 43 43z m-69 0c0 14 12 25 26 25 14 0 26-11 26-25 0-14-12-26-26-26-14 0-26 12-26 26z m255 38c-2 4-7 6-11 3l-60-34c-6-3-6-11 0-15l60-34c4-2 9-1 11 3 3 5 1 10-3 12l-47 27 47 27c4 2 6 7 3 11z m-28-167c-4 2-10 1-12-3-20-35-55-56-95-56-40 0-75 21-95 56-2 4-8 5-12 3-4-3-5-8-3-12 23-39 64-64 110-64 46 0 87 25 110 64 2 4 1 9-3 12z"/>
<glyph glyph-name="emo-sad" unicode="&#57461;" d="M393 358c-5 0-9-3-9-8 0-14-11-26-26-26-14 0-25 12-25 26 0 5-4 8-9 8-4 0-8-3-8-8 0-24 19-43 42-43 24 0 43 19 43 43 0 5-4 8-8 8z m-197-8c0 5-4 8-8 8-5 0-9-3-9-8 0-14-11-26-25-26-15 0-26 12-26 26 0 5-4 8-9 8-4 0-8-3-8-8 0-24 19-43 43-43 23 0 42 19 42 43z m60 162c-141 0-256-115-256-256 0-141 115-256 256-256 141 0 256 115 256 256 0 141-115 256-256 256z m0-495c-132 0-239 107-239 239 0 132 107 239 239 239 132 0 239-107 239-239 0-132-107-239-239-239z m0 213c-46 0-87-24-110-64-2-4-1-9 3-11 4-3 10-1 12 3 20 34 55 55 95 55 40 0 75-21 95-55 2-4 8-6 12-3 4 2 5 7 3 11-23 40-64 64-110 64z m111 145c5 0 8 4 8 9 0 5-3 9-8 9-14 0-26 11-26 25 0 5-3 9-8 9-5 0-9-4-9-9 0-23 19-43 43-43z m-222 0c24 0 43 20 43 43 0 5-4 9-9 9-5 0-8-4-8-9 0-14-12-25-26-25-5 0-8-4-8-9 0-5 3-9 8-9z"/>
<glyph glyph-name="stopwatch" unicode="&#57462;" d="M256 512c-5 0-9-4-9-9l0-113c0-5 4-8 9-8 5 0 9 3 9 8l0 105c127-5 230-110 230-239 0-132-107-239-239-239-132 0-239 107-239 239 0 64 25 124 70 169 3 3 3 8 0 12-4 3-9 3-12 0-48-49-75-113-75-181 0-141 115-256 256-256 141 0 256 115 256 256 0 141-115 256-256 256z m-12-286c5-7 13-12 22-13 1 0 1 0 2 0 8 0 16 4 22 9 6 7 9 15 9 24-1 9-6 17-13 22l-110 80c-4 3-8 2-11-1-3-3-4-7-1-11z m32 29c3-3 5-6 6-10 0-4-2-8-4-11-3-2-7-4-11-4-4 1-7 3-10 6l-48 67z"/>
<glyph glyph-name="eye" unicode="&#57378;" d="M257 368c-113 0-222-108-226-112-4-4-5-8-5-12 0-4 1-8 5-11 4-5 113-113 226-113 113 0 222 108 226 113 3 3 5 7 5 11 0 4-2 8-5 12-4 4-113 112-226 112z m0-215c-79 0-161 64-191 91 30 27 112 92 191 92 79 0 160-65 191-92-31-27-112-91-191-91z m-59 91c0-32 27-58 59-58 33 0 59 26 59 58 0 33-26 59-59 59-32 0-59-26-59-59z m85 0c0-14-12-26-26-26-14 0-26 12-26 26 0 15 11 27 26 27 14-1 26-12 26-27z"/>
<glyph glyph-name="shield" unicode="&#57388;" d="M442 460l-166 49c-13 4-27 4-40 0l-166-49c-13-4-21-15-21-28l0-138c0-64 19-125 55-178 35-51 84-90 141-114 4-1 7-2 11-2 4 0 7 1 11 2 57 24 106 63 141 114 36 53 55 114 55 178l0 138c0 13-8 24-21 28z m-2-166c0-59-18-116-51-165-32-47-78-84-131-105-1-1-3-1-4 0-53 21-99 58-131 105-33 49-51 106-51 165l0 138c0 3 2 5 4 6l167 49c4 1 9 2 13 2 4 0 9-1 13-2l167-49c2-1 4-3 4-6z m-55 114l-124 37c-3 1-7 1-10 0l-124-37c-8-2-13-9-13-16l0-98c0-52 16-101 45-143 23-33 54-60 89-78 2-1 5-2 8-2 3 0 6 1 8 2 35 18 66 45 89 78 29 42 45 91 45 143l0 98c0 7-5 14-13 16z m-11-114c0-47-14-92-41-130-20-28-46-52-77-69-31 17-57 41-77 69-27 38-41 83-41 130l0 93 118 35 118-35z"/>
<glyph glyph-name="chart-line" unicode="&#57421;" d="M470 58l-412 0 0 412c0 9-7 16-16 16-9 0-17-7-17-16l0-428c0-9 8-17 17-17l428 0c9 0 16 8 16 17 0 9-7 16-16 16z m-254 63l0 234c0 9-8 16-17 16-9 0-16-7-16-16l0-234c0-9 7-17 16-17 9 0 17 8 17 17z m-79 0l0 234c0 9-7 16-16 16-9 0-17-7-17-16l0-234c0-9 8-17 17-17 9 0 16 8 16 17z m236 0l0 234c0 9-7 16-17 16-9 0-16-7-16-16l0-234c0-9 7-17 16-17 10 0 17 8 17 17z m78 0l0 117c0 9-7 16-16 16-9 0-16-7-16-16l0-117c0-9 7-17 16-17 9 0 16 8 16 17z m-157 0l0 117c0 9-7 16-16 16-9 0-16-7-16-16l0-117c0-9 7-17 16-17 9 0 16 8 16 17z"/>
<glyph glyph-name="idea" unicode="&#57429;" d="M57 346l-44 0c-7 0-13-6-13-13 0-6 6-12 13-12l44 0c7 0 13 6 13 12 0 7-6 13-13 13z m442 0l-44 0c-7 0-13-6-13-13 0-6 6-12 13-12l44 0c7 0 13 6 13 12 0 7-6 13-13 13z m-391-160c-4 5-12 5-17 0l-33-33c-4-4-4-12 0-17 3-3 6-4 9-4 3 0 7 1 9 4l32 32c5 5 5 13 0 18z m323 322c-5 5-13 5-18 0l-31-31c-5-5-5-13 0-18 2-2 5-3 9-3 3 0 6 1 8 3l32 32c5 5 5 13 0 17z m-301-31l-31 31c-5 5-13 5-18 0-5-4-5-12 0-17l32-32c2-2 5-3 8-3 4 0 7 1 9 3 5 5 5 13 0 18z m324-324l-33 33c-5 5-12 5-17 0-5-5-5-13 0-18l32-32c2-3 6-4 9-4 3 0 6 1 9 4 4 5 4 13 0 17z m-198 325c-86 0-155-73-155-162 0-42 15-87 41-123 20-28 30-59 30-90l0-78c0-14 11-25 25-25l118 0c14 0 25 11 25 25l0 78c0 31 10 62 30 90 26 36 41 81 41 123 0 89-69 162-155 162z m59-453l-118 0 0 16 59 0c7 0 12 6 12 12 0 7-5 13-12 13l-59 0 0 16 118 0 0-57c0 0 0 0 0 0z m-76 231l-17 35 68 0-17-35c0-2-1-3-1-5l-9-144-14 0-9 144c0 2-1 3-1 5z m111-49c-22-31-34-65-35-100l-28 0 10 140 24 51c1 4 1 9-1 12-2 4-6 6-11 6l-106 0c-5 0-9-2-11-6-2-3-2-8-1-12l24-51 10-140-28 0c-1 35-13 69-35 100-23 32-37 73-37 109 0 76 59 138 131 138 72 0 131-62 131-138 0-36-14-77-37-109z"/>
<glyph glyph-name="css" unicode="&#57447;" d="M76 488l-17-86 350 0-11-56-350 0-17-86 350 0-20-98-141-46-122 46 9 43-86 0-21-103 202-77 233 77 77 386z"/>
<glyph glyph-name="html" unicode="&#57463;" d="M31 512l41-460 183-52 185 52 41 460z m361-150l-215 0 4-58 206 0-16-174-114-32 0 0-2 0-116 32-7 89 56 0 5-45 62-17 63 17 7 73-195 0-15 171 282 0z"/>
<glyph glyph-name="search" unicode="&#57391;" d="M5 29l153 154c-29 35-47 79-47 128 0 110 91 201 201 201 109 0 200-91 200-201 0-110-91-201-200-201-48 0-92 17-126 45l-151-151c-4-4-8-4-15-4-7 0-11 0-15 4-7 7-7 18 0 25z m307 117c91 0 164 73 164 165 0 91-73 164-164 164-92 0-164-73-164-164 0-92 72-165 164-165z"/>
</font>
</defs>
</svg>
